<svg baseProfile="tiny" xmlns="http://www.w3.org/2000/svg" width="633" height="125" xml:space="preserve"><path d="M74.13 102.117c1.1 9.018-5.278 16.275-16.385 16.275-14.296 0-18.146-12.427-28.922-12.427-5.389 0-9.018 2.969-9.018 6.378h-3.079c-1.87-.659-3.189-2.749-3.189-5.059 0-5.059 7.038-10.117 14.186-11.767C13.646 91.779 3.529 79.133 3.529 60.768c0-21.554 14.406-35.85 33.651-35.85 19.024 0 33.541 13.746 33.541 35.96 0 18.695-10.887 31.892-26.283 35.08-11.437 3.189-22.654 4.619-24.743 10.668 2.639-3.3 7.038-4.619 11.657-4.619 9.018 0 17.485 4.948 26.943 4.948 5.828 0 12.097-1.869 12.866-4.838h2.969zM22.554 57.359c0 18.805 6.488 34.53 16.385 34.53 8.138 0 12.756-10.447 12.756-27.603 0-18.805-6.488-34.421-16.166-34.421-8.356.001-12.975 10.448-12.975 27.494zm96.223 36.07 2.089-10.337h-1.32c-1.759 5.389-8.468 13.196-19.354 13.196-8.138 0-17.925-4.398-17.925-19.685V52.08c0-4.948-1.209-6.598-6.378-6.817v-3.739l20.235-1.979c1.759-.11 3.409.88 3.409 3.079v33.98c0 8.358 3.959 11.438 8.578 11.438 6.818 0 9.128-6.488 9.458-11.438V52.08c0-4.948-1.209-6.598-6.378-6.817v-3.739l20.345-1.979c1.54 0 3.299.88 3.299 3.079v39.919c0 4.949 1.649 8.138 7.038 8.688v3.739c-6.928 0-14.296.33-19.905 1.54-1.651-.661-2.641-1.761-3.191-3.081zm70.93-9.897h4.289c-3.959 9.347-13.856 12.646-22.214 12.646-14.296 0-26.613-9.458-26.613-28.482 0-18.695 11.657-28.813 26.613-28.813 13.196 0 22.214 7.808 22.214 18.915 0 5.059-1.65 9.678-6.818 9.678h-24.523c.77 13.526 5.279 23.533 15.396 23.533 4.727.001 8.796-1.979 11.656-7.477zm-27.163-20.564v.22h15.836c.66-11.217-1.87-20.015-7.918-20.015-6.158 0-7.918 9.237-7.918 19.795zm129.653 21.553c0 4.949 2.969 6.269 7.148 6.708v3.739a503.231 503.231 0 0 0-31.562 0v-3.739c4.179.11 7.148-1.759 7.148-6.708V58.349c0-8.357-3.189-11.217-7.698-11.217-6.158 0-9.127 5.719-9.237 10.887v26.503c0 4.949 2.969 6.599 7.148 6.708v3.739a506.702 506.702 0 0 0-31.671 0V91.23c4.179.11 7.258-1.759 7.258-6.708V58.349c0-8.357-3.629-11.217-8.138-11.217-6.598 0-8.908 6.488-8.908 11.217v26.173c0 4.949 2.969 6.818 7.148 6.708v3.739a499.734 499.734 0 0 0-31.452 0V91.23c4.069-.439 7.038-1.759 7.038-6.708V55.709c0-4.729-2.639-6.817-6.708-5.938v-3.739c7.588-1.649 13.526-3.409 20.454-7.368 1.43.66 2.64 1.76 3.189 3.189l-1.87 9.347h.77c1.54-4.729 6.928-12.316 18.475-12.316 6.269 0 13.526 2.31 16.166 11.217 1.87-4.179 7.368-11.217 18.035-11.217 7.698 0 17.266 3.629 17.266 19.465v26.172zm32.989.331c0-2.97 1.87-5.719 5.719-5.719 8.248 0 6.268 12.977 14.626 12.977 3.189 0 4.729-1.869 4.729-4.509 0-4.289-3.849-8.027-10.117-15.945-4.729-6.158-9.458-11.217-9.458-18.146 0-9.018 8.358-14.516 19.355-14.516 7.478 0 15.945 4.179 15.945 10.557 0 2.859-1.54 5.279-5.168 5.279-8.248 0-7.808-11.877-14.296-11.877-1.76 0-3.959 1.1-3.959 3.409 0 3.409 5.278 8.577 11.217 16.275 4.509 5.938 9.567 11.327 9.567 18.475 0 9.237-8.248 14.846-20.015 14.846-10.667 0-18.145-5.278-18.145-11.106zm45.856-11.437c0-18.365 14.736-34.421 31.671-34.421 10.007 0 21.665 5.168 21.665 21.664 0 18.365-14.736 35.08-31.012 35.08-10.226 0-22.324-6.048-22.324-22.323zm36.731-17.266c0-9.458-2.419-12.977-6.159-12.977-8.797 0-14.406 20.125-14.406 35.301 0 9.677 2.419 12.977 5.938 12.977 8.468 0 14.627-19.136 14.627-35.301zm92.924 31.012 5.059-28.152c1.32-7.479 1.32-12.757-3.189-12.757-6.708 0-15.836 16.825-20.345 48.717h-14.516l5.168-35.96c1.1-7.479 1.32-12.757-3.299-12.757-6.708 0-15.726 16.825-20.564 48.717h-14.516l6.598-43.658c.33-1.76-.66-2.419-1.979-2.419-1.649 0-4.838 2.529-6.708 4.398-1.1 1.21-1.87.88-2.749 0-.77-.77-.77-1.319.55-2.859 6.708-7.697 13.746-11.437 20.125-11.437 5.938 0 7.917 3.299 6.818 9.348l-3.299 15.396c4.179-11.657 9.237-24.743 22.983-24.743 7.918 0 15.066 4.289 11.217 20.015l-1.21 4.729c4.179-11.657 9.238-24.743 22.984-24.743 7.918 0 15.066 4.068 11.987 20.015l-4.399 23.644c-.33 1.979.77 2.749 2.089 2.749 1.76 0 3.959-1.319 6.159-3.52.879-.879 1.429-.879 2.309-.109.989.989.88 1.649-.11 2.749-6.598 7.698-13.856 11.217-20.125 11.217-4.839-.003-7.918-2.752-7.038-8.58zm32.442-13.746c0-18.365 14.736-34.421 31.672-34.421 10.006 0 21.664 5.168 21.664 21.664 0 18.365-14.736 35.08-31.012 35.08-10.229 0-22.324-6.048-22.324-22.323zm36.73-17.266c0-9.458-2.42-12.977-6.158-12.977-8.799 0-14.406 20.125-14.406 35.301 0 9.677 2.418 12.977 5.938 12.977 8.468 0 14.626-19.136 14.626-35.301zm20.344 28.703c0-2.97 1.869-5.719 5.719-5.719 8.246 0 6.268 12.977 14.625 12.977 3.189 0 4.729-1.869 4.729-4.509 0-4.289-3.848-8.027-10.117-15.945-4.729-6.158-9.457-11.217-9.457-18.146 0-9.018 8.357-14.516 19.355-14.516 7.477 0 15.945 4.179 15.945 10.557 0 2.859-1.539 5.279-5.168 5.279-8.248 0-7.809-11.877-14.297-11.877-1.76 0-3.959 1.1-3.959 3.409 0 3.409 5.279 8.577 11.217 16.275 4.51 5.938 9.568 11.327 9.568 18.475 0 9.237-8.248 14.846-20.016 14.846-10.666 0-18.144-5.278-18.144-11.106z" fill="#004281"/></svg>