<svg baseProfile="tiny" xmlns="http://www.w3.org/2000/svg" width="645" height="320" xml:space="preserve"><g fill="#004281"><path d="M46.44 29.961c10.404.222 19.59.222 29.773 0v3.764c-8.19.442-11.4 3.431-13.503 9.519L43.12 98.695H32.163L13.458 47.117C10.136 37.819 7.702 34.167.507 33.724V29.96c12.396.222 25.9.222 38.296 0v3.764c-6.087.11-11.179 1.992-9.076 7.969l14.5 40.289L57.73 42.136c2.103-6.197-3.1-8.301-11.29-8.411v-3.764zm29.776 64.971c3.874-.443 6.973-1.771 6.973-6.752V61.838c0-7.969-2.324-8.634-6.862-8.634v-3.763c7.305-.554 15.164-3.652 21.583-7.416 1.55.665 2.656 1.771 3.32 3.21-.665 5.313-.665 9.519-.665 16.603V88.18c0 4.981 2.878 6.309 7.084 6.752v3.764a741.897 741.897 0 0 0-31.434 0v-3.764zm5.977-66.63c0-5.092 4.096-8.966 9.076-8.966 4.981 0 9.076 3.874 9.076 8.966a9.045 9.045 0 0 1-9.076 9.075 9.046 9.046 0 0 1-9.076-9.075zm62.646 14.941h24.904v3.764c-7.084.11-9.298 2.324-11.732 10.403l-12.397 41.285h-12.839L118.497 57.41c-2.767-8.079-3.874-10.293-10.293-10.403v-3.764h32.983v3.764c-5.866.11-8.965 2.324-6.309 10.403l9.297 28.445 8.412-28.445c2.324-8.079.332-10.293-7.748-10.403v-3.764zM219 86.188c0 4.316 1.55 7.969 6.42 7.415v3.652c-2.436 1.55-5.535 2.656-9.408 2.656-6.42 0-12.286-2.323-12.286-9.961v-.332h-1.106c-.553 2.435-6.309 10.293-17.709 10.293-7.083 0-15.163-3.32-15.163-13.613 0-10.072 7.858-15.938 31.876-20.033V60.51c0-11.844-2.657-14.61-6.862-14.61-11.069 0-1.107 17.82-13.946 17.82-5.423 0-7.637-3.432-7.637-7.084 0-8.08 10.515-14.389 26.231-14.389 9.52 0 19.591 2.104 19.591 16.603v27.338zm-17.377-3.984V69.918c-12.618 1.992-15.164 9.187-15.164 14.057 0 4.98 2.435 8.965 6.419 8.965 5.313-.001 8.745-5.313 8.745-10.736zm52.574-11.622c0-19.813 14.058-28.335 26.785-28.335 13.171 0 27.671 9.187 27.671 29.331 0 19.812-14.056 28.334-26.785 28.334-13.171 0-27.671-9.297-27.671-29.33zm36.304 4.76c0-15.938-3.985-28.335-10.515-28.335-5.091 0-7.637 7.637-7.637 19.812 0 15.938 3.874 28.335 10.514 28.335 5.093-.001 7.638-7.638 7.638-19.812zM47.547 132.883c0 3.763-2.103 6.752-6.973 6.752-10.515 0-4.206-13.725-10.294-13.725-3.542 0-4.316 4.87-4.316 12.729v8.633h12.95v4.87h-12.95v36.414c0 4.98 2.878 6.31 8.854 6.752v3.764c-12.175-.222-22.8-.222-33.204 0v-3.764c3.874-.442 6.973-1.771 6.973-6.752v-36.414H1.725v-3.763c2.213 0 5.534-.555 6.862-1.107v-2.546c0-14.167 7.194-23.243 22.025-23.243 9.962-.001 16.935 4.094 16.935 11.4z"/><path d="M43.231 195.308c4.095-.442 7.083-1.771 7.083-6.752v-28.998c0-4.87-2.656-6.862-6.751-5.978v-3.763c7.637-1.66 13.614-3.542 20.587-7.416a6.485 6.485 0 0 1 3.21 3.21l-2.214 12.729h.885c3.321-9.519 7.416-15.717 15.828-15.717 5.977 0 10.293 3.32 10.293 9.076 0 4.98-3.32 8.08-7.305 8.08-5.755 0-6.862-6.53-10.847-6.53-4.207 0-6.309 7.305-6.309 15.385v19.922c0 4.98 3.099 6.31 7.969 6.752v3.764a528.075 528.075 0 0 0-32.43 0v-3.764zm101.497-8.745c0 4.317 1.55 7.97 6.419 7.416v3.652c-2.435 1.55-5.534 2.657-9.408 2.657-6.42 0-12.286-2.325-12.286-9.962v-.332h-1.107c-.553 2.436-6.309 10.294-17.708 10.294-7.084 0-15.164-3.32-15.164-13.614 0-10.072 7.858-15.938 31.876-20.034v-5.755c0-11.844-2.656-14.61-6.862-14.61-11.068 0-1.107 17.82-13.945 17.82-5.424 0-7.637-3.432-7.637-7.084 0-8.08 10.515-14.389 26.231-14.389 9.519 0 19.591 2.103 19.591 16.603v27.338zm-17.377-3.984v-12.286c-12.618 1.993-15.164 9.188-15.164 14.058 0 4.98 2.436 8.965 6.42 8.965 5.312-.001 8.744-5.313 8.744-10.737zm27.009 12.729c4.095-.442 7.083-1.771 7.083-6.752v-28.998c0-4.87-2.656-6.862-6.751-5.978v-3.763c7.637-1.66 13.614-3.431 20.587-7.416 1.438.665 2.656 1.771 3.21 3.21l-1.772 9.408h.665c2.103-4.76 7.416-12.396 19.037-12.396 7.969 0 17.599 3.652 17.599 19.48v26.452c0 4.98 2.989 6.31 7.194 6.752v3.764a506.655 506.655 0 0 0-31.765 0v-3.764c4.206.111 7.194-1.771 7.194-6.752v-26.342c0-8.302-4.206-11.289-8.855-11.289-6.198 0-8.965 5.313-8.965 11.289v26.342c0 4.98 2.989 6.863 7.194 6.752v3.764a503.156 503.156 0 0 0-31.655 0v-3.763zm70.175-23.354c0-20.255 13.835-29.331 28.003-29.331 11.843 0 21.361 6.419 21.361 15.385 0 4.317-2.213 8.19-7.416 8.19-11.954 0-2.877-19.147-13.282-19.147-7.526 0-10.515 9.961-10.515 20.918 0 12.396 3.984 27.339 15.385 27.339 3.874 0 8.412-1.659 11.622-7.858h3.984c-4.538 9.63-12.617 12.84-21.251 12.84-14.609-.001-27.891-8.746-27.891-28.336zm100.057 15.607h4.317c-3.984 9.408-13.946 12.729-22.357 12.729-14.389 0-26.785-9.52-26.785-28.668 0-18.815 11.732-28.998 26.785-28.998 13.281 0 22.357 7.858 22.357 19.037 0 5.091-1.66 9.74-6.862 9.74h-24.682c.775 13.614 5.313 23.686 15.496 23.686 4.759-.001 8.853-1.993 11.731-7.526zm-27.339-20.699v.222h15.938c.664-11.29-1.881-20.145-7.969-20.145-6.198 0-7.969 9.298-7.969 19.923zm46.488 28.778c-2.435 0-3.431 1.771-3.431 3.432h-3.542l-.665-16.271h3.1c2.767 8.08 10.404 13.171 16.602 13.171 4.095 0 7.305-2.878 7.305-6.751 0-4.87-3.874-7.638-9.519-10.516-7.416-3.874-17.709-8.854-17.709-20.144 0-9.408 7.084-15.938 16.935-15.938 6.973 0 10.404 3.431 13.724 3.431 2.104 0 3.21-1.217 3.432-2.435h3.099l.997 15.717h-3.21c-3.542-7.97-8.965-12.507-14.278-12.507-4.538 0-7.194 3.21-7.194 6.973 0 4.648 4.206 6.974 8.744 9.851 6.198 3.874 19.37 9.852 19.37 21.694 0 8.854-7.637 15.274-17.82 15.274-8.967 0-11.955-4.981-15.94-4.981zm47.04 16.048c3.099-3.431 4.095-7.083 4.095-10.072 0-.332 0-.774-.221-1.327-.554.11-1.106.221-1.992.221-5.313 0-8.523-4.316-8.523-8.301 0-4.76 3.874-8.634 8.966-8.634 5.866 0 9.076 5.092 9.076 11.4 0 7.858-3.985 14.057-7.638 17.819-.885.886-1.771.886-2.545.222l-1.218-1.328zm76.813-68.069h24.904v3.763c-7.083.111-9.298 2.325-11.733 10.405l-12.396 41.284H455.53l-14.278-41.284c-2.767-8.08-3.874-10.294-10.292-10.405v-3.763h32.983v3.763c-5.866.111-8.966 2.325-6.309 10.405l9.297 28.444 8.412-28.444c2.325-8.08.332-10.294-7.748-10.405v-3.763zm28.78 51.689c3.874-.442 6.972-1.771 6.972-6.752v-26.342c0-7.969-2.324-8.634-6.862-8.634v-3.763c7.305-.554 15.164-3.652 21.583-7.416 1.55.665 2.657 1.771 3.321 3.21-.664 5.313-.664 9.519-.664 16.603v26.342c0 4.98 2.877 6.31 7.083 6.752v3.764a741.897 741.897 0 0 0-31.434 0v-3.764zm5.977-66.631c0-5.091 4.096-8.965 9.076-8.965 4.981 0 9.076 3.874 9.076 8.965a9.045 9.045 0 0 1-9.076 9.076 9.045 9.045 0 0 1-9.076-9.076zm62.646 14.942H589.9v3.763c-7.083.111-9.297 2.325-11.732 10.405l-12.396 41.284h-12.839l-14.278-41.284c-2.767-8.08-3.874-10.294-10.293-10.405v-3.763h32.983v3.763c-5.866.111-8.965 2.325-6.309 10.405l9.297 28.444 8.412-28.444c2.324-8.08.332-10.294-7.748-10.405v-3.763zm74.161 42.944c0 4.317 1.549 7.97 6.418 7.416v3.652c-2.435 1.55-5.534 2.657-9.408 2.657-6.419 0-12.286-2.325-12.286-9.962v-.332h-1.106c-.554 2.436-6.31 10.294-17.709 10.294-7.084 0-15.164-3.32-15.164-13.614 0-10.072 7.858-15.938 31.876-20.034v-5.755c0-11.844-2.656-14.61-6.862-14.61-11.068 0-1.107 17.82-13.946 17.82-5.424 0-7.638-3.432-7.638-7.084 0-8.08 10.516-14.389 26.232-14.389 9.519 0 19.591 2.103 19.591 16.603v27.338zm-17.378-3.984v-12.286c-12.618 1.993-15.163 9.188-15.163 14.058 0 4.98 2.435 8.965 6.419 8.965 5.313-.001 8.744-5.313 8.744-10.737zM51.421 286.94c0 4.316 1.549 7.969 6.419 7.415v3.652c-2.435 1.55-5.534 2.656-9.408 2.656-6.42 0-12.286-2.324-12.286-9.961v-.332H35.04c-.553 2.435-6.309 10.293-17.709 10.293-7.083 0-15.164-3.32-15.164-13.613 0-10.072 7.858-15.938 31.876-20.034v-5.755c0-11.843-2.656-14.61-6.862-14.61-11.068 0-1.107 17.82-13.946 17.82-5.424 0-7.638-3.432-7.638-7.084 0-8.08 10.515-14.389 26.232-14.389 9.519 0 19.591 2.103 19.591 16.603v27.339zm-17.378-3.985v-12.286c-12.617 1.993-15.163 9.188-15.163 14.057 0 4.98 2.436 8.966 6.419 8.966 5.313-.001 8.744-5.314 8.744-10.737zm51.801-3.21c0-18.262 14.167-36.636 31.545-36.636 9.076 0 15.717 5.978 15.717 12.84 0 4.648-2.878 8.965-7.858 8.965-4.095 0-5.866-2.656-5.866-6.088 0-7.305 3.542-11.622-2.878-11.622-10.847 0-15.274 16.492-15.274 27.118 0 9.629 3.542 15.717 10.404 15.717 3.652 0 7.637-1.661 11.732-5.977.886-.886 1.218-1.439 2.214-1.439h1.771c2.214 0 1.661 2.103.332 3.874-5.755 9.298-13.835 13.725-23.022 13.725-9.741 0-18.817-5.534-18.817-20.477zm50.251 16.05 9.52-57.555c.664-4.76-1.55-5.756-6.199-5.313l.665-5.092c11.954-1.771 17.488-4.095 19.702-4.095 2.656 0 3.542 1.66 2.988 4.648l-7.305 38.85c3.431-10.958 10.736-24.129 24.35-24.129 9.408 0 14.5 6.31 14.5 18.595 0 17.931-10.958 38.628-27.781 38.628-6.309 0-9.961-2.878-9.961-7.194 0-4.206 2.988-6.309 6.198-6.309 7.969 0 4.427 9.298 7.416 9.298 3.542 0 6.863-26.454 6.863-35.529 0-9.076-2.546-10.404-4.76-10.404-7.748 0-16.27 16.381-20.697 46.265-.554 2.768-4.206 3.984-8.412 3.984-4.43-.001-7.64-1.217-7.087-4.648zm63.535-18.042c0-18.483 14.832-34.644 31.876-34.644 10.072 0 21.804 5.202 21.804 21.805 0 18.484-14.832 35.308-31.211 35.308-10.294 0-22.469-6.088-22.469-22.469zm36.968-17.377c0-9.519-2.436-13.061-6.198-13.061-8.854 0-14.5 20.255-14.5 35.529 0 9.739 2.435 13.061 5.978 13.061 8.522 0 14.72-19.259 14.72-35.529zm28.115 19.812 4.87-23.797c.443-1.992-.774-2.767-2.103-2.767-1.771 0-3.985 1.327-6.309 3.542-.775.885-1.329.885-2.214.11-1.106-.997-.885-1.66.111-2.768 6.641-7.748 13.946-11.289 20.144-11.289 4.981 0 8.301 2.767 7.083 8.633l-5.312 28.335c-1.55 7.526-1.439 12.949 2.656 12.949 6.973 0 15.053-17.045 19.591-49.143h14.61l-6.309 43.941c-.332 1.77.664 2.435 1.992 2.435 1.661 0 4.87-2.656 6.751-4.428 1.218-1.218 1.881-.886 2.768 0 .774.775.774 1.329-.554 2.878-6.751 7.748-13.835 11.511-20.697 11.511-5.534 0-7.526-3.32-6.309-9.408l3.209-15.495c-4.206 11.732-8.744 24.903-22.247 24.903-7.968.002-14.83-4.094-11.731-20.142zm64.308-1.328c0-19.038 15.606-35.751 33.647-35.751 8.965 0 12.506 4.87 12.506 10.072 0 13.504-21.14 22.137-30.216 24.683-.443 8.743 5.092 12.175 9.961 12.175 3.32 0 8.08-1.55 11.954-5.756.996-1.106 1.438-1.66 2.877-1.66h1.107c2.213 0 1.771 2.103.222 4.538-5.867 8.522-13.615 13.061-22.358 13.061-9.627 0-19.7-6.088-19.7-21.362zm33.316-24.904c0-4.316-1.439-6.419-3.763-6.419-5.091 0-12.064 11.068-13.393 26.12 10.514-3.098 17.156-10.293 17.156-19.701zm52.133-8.854c.554 0 .996.333.885.997l-.553 3.431c-.111.332-.333.774-.886.774h-8.412l-5.645 36.747c-.332 1.992.885 2.767 2.103 2.767 1.881 0 4.095-1.328 6.309-3.542.886-.886 1.328-.886 2.214-.11 1.106.996.885 1.66-.111 2.767-6.531 7.748-13.946 11.29-20.144 11.29-4.981 0-7.637-2.988-6.751-8.633l6.198-41.285h-7.083c-.554 0-.996-.442-.885-1.106l.553-3.32c.111-.332.332-.775.886-.775h7.305l2.103-14.389h15.938l-2.214 14.389h8.19zm38.63 0c.554 0 .996.333.886.997l-.553 3.431c-.111.332-.333.774-.886.774h-8.412l-5.644 36.747c-.333 1.992.885 2.767 2.103 2.767 1.881 0 4.095-1.328 6.309-3.542.886-.886 1.328-.886 2.214-.11 1.107.996.886 1.66-.111 2.767-6.53 7.748-13.946 11.29-20.144 11.29-4.981 0-7.637-2.988-6.751-8.633l6.198-41.285h-7.083c-.554 0-.996-.442-.885-1.106l.553-3.32c.111-.332.332-.775.886-.775h7.305l2.103-14.389h15.938l-2.214 14.389h8.188zm2.325 33.758c0-19.038 15.606-35.751 33.647-35.751 8.965 0 12.507 4.87 12.507 10.072 0 13.504-21.14 22.137-30.216 24.683-.443 8.743 5.091 12.175 9.961 12.175 3.32 0 8.08-1.55 11.954-5.756.995-1.106 1.438-1.66 2.877-1.66h1.106c2.214 0 1.771 2.103.222 4.538-5.866 8.522-13.614 13.061-22.357 13.061-9.629 0-19.701-6.088-19.701-21.362zm33.316-24.904c0-4.316-1.439-6.419-3.763-6.419-5.092 0-12.065 11.068-13.393 26.12 10.514-3.098 17.156-10.293 17.156-19.701zm34.783 34.951c0 3.063-1.046 5.676-3.135 7.838-2.089 2.161-4.666 3.242-7.728 3.242-2.343 0-4.135-.738-5.377-2.216-1.244-1.478-1.865-3.297-1.865-5.459 0-3.062 1.035-5.639 3.107-7.729 2.072-2.089 4.657-3.135 7.755-3.135 4.828.001 7.243 2.488 7.243 7.459zm5.566-53.505c0 6.306-3.225 17.979-9.674 35.022h-5.243c-.721-11.062-1.081-20.016-1.081-26.862 0-10.952 3.135-16.429 9.404-16.429 4.396.001 6.594 2.757 6.594 8.269zm-209.836-96.409h-5.296c0-.468-2.829-4.216-8.485-11.241-7.134 7.025-10.719 10.773-10.754 11.241h-5.297c.036-.468 1.946-3.359 5.729-8.674 3.783-5.314 5.783-8.26 5.999-8.837h9.944c.144.577 1.541 3.522 4.189 8.837s3.971 8.206 3.971 8.674z"/></g></svg>