<svg xmlns="http://www.w3.org/2000/svg" width="460" height="355" version="1.0" viewBox="0 0 345 266.25"><defs><clipPath id="a"><path d="M58 166.594h69V261H58Zm0 0"/></clipPath></defs><path fill="#d71923" d="M22.957 1.3 0 11.96v20.79l20.434-8.621V93.46h21.265V1.3Zm0 0"/><g clip-path="url(#a)" transform="translate(-5.906 -166.594)"><path fill="#d71923" d="M92.887 166.594c-18.692 0-33.899 15.207-33.899 33.898v26.32c0 16.422 11.739 30.153 27.266 33.243l10.406-14.297.008-.035c-9.836 0-21.621-9.075-21.621-18.91v-26.32c0-9.837 8.004-17.84 17.84-17.84s17.836 8.003 17.836 17.84v24.655l16.062-20.875v-3.78c0-18.692-15.207-33.9-33.898-33.9zm0 0"/></g><path fill="#d71923" d="M119.465 78.2c.27.25.262.515-.027.792-1.868 2.055-3.73 3.078-5.586 3.078-.782 0-1.356-.195-1.723-.59-.367-.394-.48-.996-.34-1.804l.32-1.254c-.503 1.262-1.128 2.187-1.882 2.773-.754.586-1.715.875-2.883.875-1.172 0-2.125-.312-2.914-.945-.782-.64-1.172-1.707-1.172-3.191 0-1.672.504-3.332 1.508-4.977a12.856 12.856 0 0 1 4.011-4.066c1.653-1.07 3.371-1.602 5.157-1.602 1.207 0 2.632.313 4.277.945l-1.547 10.215c-.039.215 0 .383.113.5.11.121.254.184.43.184.484 0 1.027-.301 1.633-.906.21-.188.422-.196.625-.028zm-10.563 1.991c1.766 0 3.207-3.062 4.32-9.183l.391-2.063c-.129-.28-.414-.41-.851-.39-.805 0-1.555.347-2.242 1.043-.68.68-1.208 1.535-1.59 2.566-.797 2.11-1.2 4.023-1.2 5.742 0 1.524.391 2.285 1.172 2.285zM138.906 78.2c.254.25.242.515-.027.792-1.887 2.055-3.781 3.078-5.684 3.078-.734 0-1.289-.203-1.664-.613-.379-.406-.488-1.004-.328-1.781l1.336-6.899c.215-.93.274-1.707.18-2.328-.082-.64-.38-.96-.89-.96-.911 0-1.923 1.109-3.04 3.327-1.113 2.215-1.941 5.235-2.48 9.059h-4.25l1.629-11.188c.066-.398-.106-.601-.516-.601-.176 0-.45.137-.824.406-.36.266-.676.543-.946.82-.27.27-.527.262-.765-.027-.215-.187-.168-.46.136-.824 1.907-2.07 3.829-3.106 5.77-3.106 1.563 0 2.172.883 1.828 2.649l-.738 3.371c.277-.723.496-1.254.652-1.59.215-.453.512-.973.895-1.558.406-.625.808-1.118 1.21-1.477.446-.41.985-.746 1.618-1.004a5.116 5.116 0 0 1 1.98-.39c1.235 0 2.188.41 2.856 1.226.668.824.804 2.223.406 4.195l-1.172 5.672c-.055.211-.027.38.09.5.117.121.266.18.453.18.492 0 1.031-.3 1.617-.906.215-.184.438-.192.668-.028zM148.648 67.355c1.07 0 2.043.168 2.926.504.895.317 1.66.938 2.301 1.868.648.898.977 2.054.977 3.468 0 2.426-.844 4.512-2.524 6.258-1.672 1.746-3.601 2.617-5.781 2.617-1.469 0-2.824-.449-4.059-1.347-.633-.457-1.129-1.09-1.496-1.903-.367-.812-.55-1.738-.55-2.77 0-2.433.828-4.491 2.48-6.171 1.656-1.684 3.562-2.524 5.73-2.524zm1.407 3.47c0-1.552-.457-2.317-1.38-2.298-1.01 0-1.863 1.032-2.55 3.094-.676 2.043-1.016 4.367-1.016 6.965 0 1.527.442 2.285 1.325 2.285.964 0 1.808-1.008 2.535-3.023.722-2.016 1.086-4.356 1.086-7.024zM166.277 78.113c0 1.239-.488 2.215-1.464 2.942-.965.715-2.286 1.074-3.958 1.074-1.43 0-2.617-.293-3.566-.879-.95-.605-1.422-1.32-1.422-2.145 0-.464.137-.847.41-1.144.274-.297.676-.445 1.207-.445.528 0 .938.183 1.254.558.324.38.555.785.696 1.211.16.43.394.832.71 1.211.317.375.735.559 1.254.559.743 0 1.118-.332 1.118-1.004 0-.399-.168-.832-.504-1.297-.14-.211-.313-.45-.516-.711-.156-.211-.422-.531-.793-.961-.234-.266-.543-.64-.937-1.113-.063-.114-.215-.309-.457-.586-.176-.215-.34-.41-.489-.586a60.554 60.554 0 0 1-.418-.531 6.716 6.716 0 0 1-.379-.57c-.324-.587-.515-.97-.57-1.157a4.49 4.49 0 0 1-.191-1.281c0-1.215.492-2.168 1.488-2.856 1.004-.699 2.266-1.047 3.79-1.047 1.081 0 2.073.27 2.983.81.918.538 1.38 1.233 1.38 2.089 0 .437-.122.8-.368 1.09-.246.285-.598.43-1.055.43-.535 0-.996-.172-1.378-.516-.391-.36-.664-.742-.82-1.14a4.2 4.2 0 0 0-.712-1.145c-.308-.344-.652-.516-1.03-.516-.243 0-.454.059-.638.172a.558.558 0 0 0-.27.496c0 .29.118.621.36 1.004.254.379.715.957 1.395 1.726.754.864 1.222 1.41 1.406 1.63.02.03.059.077.113.14.055.066.14.164.258.3.113.137.219.259.313.372.406.48.648.793.722.933l.504.793c.379.606.57 1.301.57 2.094zm0 0"/></svg>