<svg version="1.2" baseProfile="tiny" xmlns="http://www.w3.org/2000/svg" width="546.285" height="296.433" xml:space="preserve"><path fill="#D71920" d="M106.755 277.257h2.918v14.174h-2.918v-14.174zm15.755 7.587c-.709-.667-1.688-1.938-1.688-1.938s.208 1.563.208 2.585v5.94h-2.73v-14.299h.292l7.149 6.712c.688.646 1.667 1.938 1.667 1.938s-.188-1.605-.188-2.585v-5.94h2.73v14.299h-.292l-7.148-6.712zm14.795 3.794 2.376-1.376c.625 1.021 1.438 1.771 2.876 1.771 1.209 0 1.98-.604 1.98-1.438 0-1.001-.792-1.355-2.126-1.938l-.729-.313c-2.105-.896-3.502-2.022-3.502-4.398 0-2.188 1.667-3.855 4.273-3.855 1.855 0 3.189.646 4.148 2.334l-2.272 1.459c-.5-.896-1.042-1.251-1.876-1.251-.854 0-1.396.542-1.396 1.251 0 .875.542 1.229 1.792 1.771l.729.313c2.48 1.063 3.877 2.147 3.877 4.586 0 2.626-2.063 4.064-4.835 4.064-2.71.001-4.461-1.291-5.315-2.98zm20.861-8.816h-4.043v-2.564h11.005v2.564h-4.043v11.609h-2.918v-11.609zm14.795-2.565h2.918v14.174h-2.918v-14.174zm14.776 2.565h-4.043v-2.564h11.005v2.564h-4.043v11.609h-2.918v-11.609zm14.67 6.481v-9.046h2.918v8.88c0 2.063.896 2.855 2.834 2.855 1.918 0 2.793-.792 2.793-2.855v-8.88h2.918v9.046c0 3.586-2.48 5.315-5.711 5.315-3.271.001-5.752-1.729-5.752-5.315zm23.216-6.481h-4.043v-2.564h11.005v2.564h-4.043v11.609h-2.918v-11.609zm24.965-2.565h4.356c4.356 0 7.462 2.897 7.462 7.087s-3.085 7.087-7.462 7.087h-4.356v-14.174zm4.21 11.611c3.147 0 4.585-1.876 4.585-4.523s-1.438-4.522-4.585-4.522h-1.292v9.046h1.292zm15.691-11.611h9.38v2.564h-6.461v3.251h5.69v2.501h-5.69v3.294h6.752v2.563h-9.671v-14.173zm28.238 0h9.129v2.564h-6.211v3.688h5.648v2.605h-5.648v5.315h-2.918v-14.172zm17.212 0h5.254c2.896 0 5.273 1.355 5.273 4.669 0 2.147-1.127 3.502-2.773 4.148l3.232 5.356h-3.336l-2.877-4.919h-1.854v4.919h-2.92v-14.173zm5.17 6.795c1.438 0 2.355-.563 2.355-2.126 0-1.584-.959-2.104-2.355-2.104h-2.25v4.23h2.25zm18.653-6.92h.25l6.482 14.299h-3.064l-.793-1.918h-5.502l-.791 1.918h-2.814l6.232-14.299zm1.834 9.943-.896-2.146c-.396-.938-.813-2.376-.855-2.522-.02.063-.438 1.543-.832 2.522l-.896 2.146h3.479zm16.65-2.231c-.709-.667-1.689-1.938-1.689-1.938s.209 1.563.209 2.585v5.94h-2.73v-14.299h.291l7.15 6.712c.688.646 1.668 1.938 1.668 1.938s-.188-1.605-.188-2.585v-5.94h2.73v14.299h-.293l-7.148-6.712zm19.942 10.339 1.334-.813c.168.313.418.584.896.584.396 0 .75-.229.75-.709s-.354-.708-.854-.708h-.709v-2.063c-3.355-.646-5.814-3.46-5.814-7.129 0-4.189 3.23-7.253 7.295-7.253 2.563 0 4.396.917 5.668 2.896l-2.229 1.584c-.668-1.083-1.814-1.854-3.439-1.854-2.564 0-4.295 1.979-4.295 4.627s1.73 4.669 4.295 4.669c1.834 0 2.855-.875 3.646-2.084l2.271 1.563c-1.229 1.917-3.188 3.126-5.918 3.126h-.043v.625c.959.188 1.855.876 1.855 2.168 0 1.251-1.125 2.021-2.25 2.021-1.292 0-2.042-.541-2.459-1.25zm21.402-18.051h.25l6.482 14.299h-3.063l-.793-1.918h-5.502l-.793 1.918h-2.814l6.233-14.299zm1.834 9.943-.896-2.146c-.395-.938-.813-2.376-.854-2.522-.021.063-.438 1.543-.834 2.522l-.896 2.146h3.48zm12.502-9.818h2.92v14.174h-2.92v-14.174zm10.316 11.381 2.375-1.376c.627 1.021 1.439 1.771 2.877 1.771 1.209 0 1.98-.604 1.98-1.438 0-1.001-.793-1.355-2.127-1.938l-.729-.313c-2.105-.896-3.502-2.022-3.502-4.398 0-2.188 1.668-3.855 4.273-3.855 1.855 0 3.189.646 4.146 2.334l-2.271 1.459c-.5-.896-1.041-1.251-1.875-1.251-.855 0-1.396.542-1.396 1.251 0 .875.541 1.229 1.793 1.771l.729.313c2.48 1.063 3.877 2.147 3.877 4.586 0 2.626-2.063 4.064-4.836 4.064-2.708.001-4.46-1.291-5.314-2.98zM296.299 74.325c2.708 7.432 4.208 15.437 4.285 23.779 8.252-11.095 13.379-24.649 14.051-39.373a38.668 38.668 0 0 1-18.336 15.594zm-14.726-7.274 3.331-8.183h-6.661z"/><path fill="#004282" d="M281.949 15.583c-13.247 0-25.07-6.072-32.85-15.583v36.822c3.395-5.048 9.158-8.37 15.701-8.37 7.529 0 14.031 4.398 17.072 10.767 3.043-6.369 9.541-10.767 17.068-10.767 6.545 0 12.308 3.322 15.703 8.37V.187c-7.779 9.403-19.538 15.396-32.694 15.396zm-.193 61.607c-13.899 0-26.068-7.366-32.847-18.401-10.226 33.713-37.095 60.183-71.042 69.871a71.254 71.254 0 0 0 30.58 9.186 93.659 93.659 0 0 1-11.928 4.155 64.253 64.253 0 0 0 31.625 8.568c35.664.282 64.803-28.398 65.089-64.061a64.775 64.775 0 0 0-.831-10.818 38.482 38.482 0 0 1-10.646 1.5z"/><circle fill="#004282" cx="264.624" cy="47.362" r="5.042"/><circle fill="#004282" cx="298.904" cy="47.362" r="5.042"/><path fill="#004282" d="M0 201.12c0-31.219 23.758-52.996 53.148-52.996 18.273 0 32.282 6.854 41.117 20.104l-8.376 6.091c-6.702-9.897-17.818-16.296-32.741-16.296-24.214 0-41.726 18.429-41.726 43.098 0 24.67 17.512 43.096 41.726 43.096 15.075 0 26.65-6.548 34.111-17.359l8.527 5.939c-9.139 13.4-24.061 21.317-42.639 21.317C23.758 254.113 0 232.335 0 201.12zm106.755-58.174h10.661v59.24c3.959-8.376 12.183-13.707 22.385-13.707 14.012 0 23.604 9.594 23.604 26.042v38.374h-10.659v-37.156c0-11.115-5.179-17.514-15.687-17.514-11.727 0-19.644 7.464-19.644 19.95v34.72h-10.661V142.946zm68.527 78.426c0-18.426 14.62-32.893 33.505-32.893 18.729 0 33.196 14.467 33.196 32.893 0 18.43-14.468 32.741-33.196 32.741-18.885 0-33.505-14.312-33.505-32.741zm55.889 0c0-13.553-8.983-23.603-22.384-23.603-13.553 0-22.691 10.05-22.691 23.603 0 13.556 9.139 23.606 22.691 23.606 13.401 0 22.384-10.051 22.384-23.606zm22.692 3.655v-35.176h10.66v34.72c0 13.097 5.176 20.255 17.207 20.255 12.184 0 17.359-7.158 17.359-20.255v-34.72h10.51v35.176c0 18.429-10.813 29.238-28.021 29.238-17.36 0-27.715-10.809-27.715-29.238zm101.727 20.102c9.439 0 15.837-3.807 19.948-8.376l6.547 6.396c-5.784 6.55-14.16 10.964-26.495 10.964-20.711 0-34.111-14.312-34.111-32.741 0-18.426 14.16-32.893 32.586-32.893 20.255 0 32.438 15.533 31.676 36.396h-53.604c1.372 12.03 9.593 20.254 23.453 20.254zm19.492-28.323c-.914-10.813-7.769-19.342-21.018-19.342-12.027 0-20.1 7.767-21.773 19.342h42.791zm25.735 17.055v-35.025h-9.746v-8.984h9.746v-32.893h10.509v32.893h33.96v-32.893h10.509v32.893h17.664v8.984h-17.664v35.178c0 8.376 2.893 10.965 7.462 10.965 4.263 0 6.546-1.829 8.527-3.655l5.785 6.699c-2.741 2.896-7.613 6.243-15.38 6.243-9.594 0-16.903-5.48-16.903-20.404v-35.025h-33.96v35.178c0 8.376 2.893 10.965 7.461 10.965 4.267 0 6.551-1.829 8.529-3.655l5.787 6.699c-2.74 2.896-7.613 6.243-15.382 6.243-9.594-.002-16.904-5.482-16.904-20.406zm115.284 11.268c9.439 0 15.838-3.807 19.948-8.376l6.547 6.396c-5.784 6.55-14.16 10.964-26.495 10.964-20.71 0-34.111-14.312-34.111-32.741 0-18.426 14.16-32.893 32.587-32.893 20.255 0 32.438 15.533 31.675 36.396h-53.604c1.373 12.03 9.593 20.254 23.453 20.254zm19.493-28.323c-.915-10.813-7.769-19.342-21.018-19.342-12.028 0-20.1 7.767-21.774 19.342h42.792z"/></svg>