<?xml version="1.0" encoding="utf-8"?>
<!-- Generator: Adobe Illustrator 16.0.0, SVG Export Plug-In . SVG Version: 6.00 Build 0)  -->
<!DOCTYPE svg PUBLIC "-//W3C//DTD SVG 1.1 Tiny//EN" "http://www.w3.org/Graphics/SVG/1.1/DTD/svg11-tiny.dtd">
<svg version="1.1" baseProfile="tiny" id="Layer_1" xmlns="http://www.w3.org/2000/svg" xmlns:xlink="http://www.w3.org/1999/xlink"
	 x="0px" y="0px" width="347.5px" height="179px" viewBox="0 0 347.5 179" xml:space="preserve">
<path fill="#7CAEE1" d="M271.95,156.832c-0.604-0.577-0.886-0.77-1.674-1.118C269.902,156.623,271.27,157.515,271.95,156.832"/>
<path fill="#7CAEE1" d="M288.897,99.289c-0.002,0.004-0.016-0.009-0.031-0.029C288.884,99.272,288.9,99.286,288.897,99.289
	 M292.105,96.11c-1.698,1.058-3.114,2.948-3.278,3.085c-0.24-0.473-0.731-1.775-0.918-2.241c-0.17,0.681-0.157,1.389-0.038,2.078
	C288.47,102.088,291.161,98.457,292.105,96.11"/>
<path fill="#7CAEE1" d="M299.575,90.393c-1.087,0.855-2.902,3.387-4.175,2.298c-0.184-0.145-0.333-0.354-0.371-0.657
	c-0.193,0.246-0.185,0.633-0.045,0.945C295.846,94.811,299.014,93.696,299.575,90.393"/>
<path fill="#7CAEE1" d="M302.096,107.668c-1.086,0.654-1.728,3.285-2.954,2.583c-0.388-0.209-0.477-0.824-0.616-1.283
	c-0.944,1.823,0.849,2.947,2.199,1.984C301.827,110.137,301.789,108.725,302.096,107.668"/>
<path fill="#7CAEE1" d="M290.669,103.38c-4.737,4.679-11.64,13.589-14.816,18.949C277.292,120.91,287.293,109.067,290.669,103.38"/>
<path fill="#7CAEE1" d="M274.286,119.818c-0.268,0.062-0.89,0.224-1.696,0.474c0.13-0.57,0.004-1.31-0.24-1.772l-0.102-0.013
	c-1.073,1.136-0.575,2.413-0.712,3.164c0.312-0.191,1.687-0.966,2.794-1.758L274.286,119.818z"/>
<path fill="#7CAEE1" d="M289.706,111.217c-1.538,0.755-2.385,1.287-2.811,1.499c-0.061-0.216-0.136-0.433-0.266-0.653l-0.103-0.005
	c-0.62,0.854-0.595,2.041-0.708,2.528c0.541-0.437,0.521,0.153,3.947-3.285L289.706,111.217z"/>
<path fill="#7CAEE1" d="M272.811,153.512c0.163,1.217,1.947,1.894,2.495,1.275c0.127-0.15,0.156-0.401,0.013-0.506
	C275.14,154.811,274.569,154.001,272.811,153.512"/>
<path fill="#7CAEE1" d="M279.266,127.373c-0.183,0.882-0.92,2.96,0.798,3.482c1.511,0.482,3.406-2.271,3.646-3.937
	C281.419,128.715,279.464,131.882,279.266,127.373"/>
<path fill="#7CAEE1" d="M288.714,124.38c-1.005,0.217-0.418-0.901-1.218-3.336c-2.31,7.403,4.438,4.652,4.412,0.476
	C291.226,122.476,289.716,124.231,288.714,124.38"/>
<path fill="#7CAEE1" d="M296.608,117.794c0.018,0.047-0.028,0.01-0.061-0.059C296.575,117.753,296.6,117.775,296.608,117.794
	 M296.13,116.057c-1.13,1.541-0.516,3.943,1.581,2.17c0.888-0.779,1.666-1.894,1.866-3.051c-1.067,0.654-2.478,1.939-3.068,2.452
	C296.363,117.17,296.251,116.638,296.13,116.057"/>
<path fill="#7CAEE1" d="M304.094,96.69c-8.48,12.683-15.997,20.76-27.495,29.995c6.263-3.631,10.017-7.23,13.613-10.629
	c-0.66,1.034-0.561,2.064-0.592,2.198c0.179,0,1.83,0.478,3.271-1.189c0.334-0.392,0.59-0.825,0.779-1.275
	c0.19-0.449,0.326-0.91,0.406-1.396c-1.033,0.982-1.993,2.595-3.628,2.983c-0.055-0.587-0.03-1.024-0.006-1.549
	C291.083,115.369,299.405,106.68,304.094,96.69"/>
<path fill="#7CAEE1" d="M299.624,135.307c-0.46-0.25-5.242-2.451-5.647-2.608C294.819,134.57,297.598,135.898,299.624,135.307"/>
<path fill="#7CAEE1" d="M301.328,130.49c0.895,1.112,2.923,1.98,4.375,1.826C304.795,131.183,302.756,130.343,301.328,130.49"/>
<path fill="#7CAEE1" d="M304.787,125.857c-0.576-0.979-2.024-1.553-3.111-1.247C301.855,124.914,303.696,126.169,304.787,125.857"/>
<path fill="#7CAEE1" d="M308.213,123.262c0.617,1.819,3.873,1.646,4.33-0.168C311.059,123.593,309.762,123.657,308.213,123.262"/>
<path fill="#7CAEE1" d="M295.109,138.48c-0.237-0.18-2.892-2.038-3.166-2.212C291.728,137.792,293.751,139.203,295.109,138.48"/>
<path fill="#7CAEE1" d="M283.98,118.125c-2.755,1.665-6.643,5.42-8.38,8.025C278.279,124.524,282.205,120.792,283.98,118.125"/>
<path fill="#7CAEE1" d="M312.863,90.639C312.807,90.813,312.811,90.809,312.863,90.639"/>
<path fill="#7CAEE1" d="M302.803,46.784c-0.928-3.292-0.923-5.71,0.029-8.996C300.789,40.136,300.774,44.429,302.803,46.784"/>
<path fill="#7CAEE1" d="M311.77,41.594c-0.453-0.076-0.58-0.682-0.373-0.981c0.225-0.364,0.729-0.458,1.047-0.153
	C312.869,40.874,312.572,41.731,311.77,41.594 M311.035,39.726c-2.607,0.043-2.547,3.986,0.064,3.944
	C313.705,43.627,313.643,39.684,311.035,39.726"/>
<path fill="#7CAEE1" d="M325.539,40.2c0.822-0.013,0.842,1.263,0.021,1.276C324.736,41.489,324.717,40.214,325.539,40.2
	 M324.869,43.652c2.607-0.042,2.545-3.985-0.064-3.943C322.197,39.752,322.258,43.695,324.869,43.652"/>
<path fill="#7CAEE1" d="M317.975,42.571c0.697,0.12,1.352-0.331,1.418-0.884c-0.971,0.221-1.674,0.082-2.467-0.417
	C316.809,41.807,317.271,42.452,317.975,42.571"/>
<path fill="#7CAEE1" d="M306.107,41.164c-1.625,3.746,3.398,7.293,6.396,4.805C311.746,46.185,306.119,46.128,306.107,41.164"/>
<path fill="#7CAEE1" d="M311.219,49.348c-1.043,0.287-3.309,1.298-4.113,1.9C308.557,51.546,310.561,50.697,311.219,49.348"/>
<path fill="#7CAEE1" d="M310.318,47.908c-0.643,0.178-5.328,1.828-5.86,2.055C306.383,50.418,309.092,49.479,310.318,47.908"/>
<path fill="#7CAEE1" d="M311.303,32.711c0.027,0.042,3.875,5.204,3.908,5.245C315.072,35.853,313.268,33.445,311.303,32.711"/>
<path fill="#7CAEE1" d="M315.67,33.249c0.191,1.149,1.152,3.818,1.736,4.816C317.795,36.482,316.965,34.212,315.67,33.249"/>
<path fill="#7CAEE1" d="M319.436,35.125c-0.576,0.483-0.635,1.392-0.105,1.94C319.914,36.578,319.955,35.668,319.436,35.125"/>
<path fill="#7CAEE1" d="M327.688,32.081c-1.621,0.753-3.371,2.861-3.795,4.635C324.309,36.388,326.813,33.801,327.688,32.081"/>
<path fill="#7CAEE1" d="M298.955,68.961c-3.009-0.11-2.708,0.401-3.072-1.473c-0.742,0.774-0.643,1.669-0.18,2.103
	C296.468,70.366,298.282,69.883,298.955,68.961"/>
<path fill="#7CAEE1" d="M307.705,73.055c-0.822,0.356-1.732,0.744-2.613,0.599c-0.727-0.119-1.537-0.81-1.59-1.718
	c-0.323,0.324-0.442,0.995-0.072,1.674C304.416,75.394,307.045,74.843,307.705,73.055"/>
<path fill="#7CAEE1" d="M298.579,80.292c-1.323,1.029,0.819,3.971,3.503,2.288C301.114,82.191,298.688,82.107,298.579,80.292"/>
<path fill="#7CAEE1" d="M293.776,81.399c-1.014-0.045-4.856,0.71-5.357-1.924C287.437,81.022,290.327,84.185,293.776,81.399"/>
<path fill="#7CAEE1" d="M309.605,83.528c-1.771,6.296-3.779,11.897-4.773,14.947c3.428-5.687,6.5-15.046,6.496-21.697
	c-0.457,1.999-0.936,3.923-1.484,5.906c-1.57,0.609-1.73-1.116-2.09-1.966C307.506,81.095,307.986,84.372,309.605,83.528"/>
<path fill="#7CAEE1" d="M332.738,67.908l-0.104,0.006c-0.596,0.923-0.457,1.898,0.322,4.559l0.105-0.006
	c0.074-0.514,0.318-3.107,0.223-3.454C333.189,68.639,333.051,68.267,332.738,67.908"/>
<path fill="#7CAEE1" d="M324.471,77.398c0.09-0.32,0.348-1.359,0.529-2.364c0.072-0.394,0.484-1.314-0.193-2.417l-0.104-0.007
	c-0.656,0.793-0.768,1.589-0.338,4.781L324.471,77.398z"/>
<path fill="#7CAEE1" d="M335.893,63.083c-0.436,0.814-0.529,1.56,0.547,4.968l0.104-0.01c0.252-2.902,0.23-4.063-0.547-4.969
	L335.893,63.083z"/>
<path fill="#7CAEE1" d="M314.512,71.735c-3.164,15.789-7.01,27.341-14.203,42.175C307.621,103.897,313.314,86.181,314.512,71.735"/>
<path fill="#7CAEE1" d="M330.217,40.145c-0.119,2.305-0.982,4.06-2.732,5.573C329.811,45.458,331.467,42.201,330.217,40.145"/>
<path fill="#7CAEE1" d="M334.133,47.694c2.387-3.054,1.764-8.212-0.525-11.304C334.801,40.394,335.43,43.686,334.133,47.694"/>
<path fill="#7CAEE1" d="M327.52,45.917c-2.137,0.329-4.584,0.792-6.529-1.294C321.453,46.929,325.1,47.967,327.52,45.917"/>
<path fill="#7CAEE1" d="M328.271,51.415c-0.387-0.202-4.203-1.868-4.559-1.996C324.434,50.931,326.697,51.906,328.271,51.415"/>
<path fill="#7CAEE1" d="M326.75,48.709c0.643,1.49,2.936,2.327,4.387,1.588c-0.785-0.288-1.654-0.483-3.266-1.141
	C327.514,49.014,327.158,48.856,326.75,48.709"/>
<path fill="#7CAEE1" d="M317.004,44.136c0.639-0.661,1.863-0.607,2.367,1.011c-0.027,1-0.287,1.957-0.557,2.881
	c-0.029-1.496-0.404-2.754-0.863-3.543c-0.021,0.966,0.195,6.976,0.244,7.633c-0.469-1.112-2.217-6.242-1.438-7.225
	c-0.563,0.71-0.689,2.138-0.484,3.877c0.102,0.845,0.627,1.721,0.848,2.449c0.533,1.744,1.117,2.73,1.17,2.8
	c0.197,0.966,0.969-2.421,1.203-2.718C322.775,42.528,316.895,41.821,317.004,44.136"/>
<path fill="#7CAEE1" d="M327.025,68.629c0.031-0.39,0.105-1.643,0.107-2.832c0.002-0.458,0.25-1.602-0.615-2.766l-0.104,0.01
	c-0.453,0.92-0.533,1.774,0.508,5.596L327.025,68.629z"/>
<g>
	<path fill="none" d="M323.154,142.677l-0.041,0.05c0.736,1.578,1.576,1.66,2.219,3.847l0.066-0.01
		C325.367,145.207,324.652,143.031,323.154,142.677z"/>
	<path fill="none" d="M310.67,142.835c-1.689-0.686-3.24-1.487-4.17-2.672c-0.092,0.043-0.188,0.082-0.281,0.122
		c0.502,1.519,1.15,1.994,1.307,2.423c2.016,2.708,5.748,3.629,6.674,6.419c0.963,0.494,2.688,1.595,3.633,1.065
		c-4.131-2.874-1.303-4.582,0.744-2.283c-0.395-2.697-4.311-3.633-7.744-5.011C310.77,142.896,310.713,142.873,310.67,142.835z"/>
	<path fill="none" d="M323.969,140.607c0.297,0.089,0.604,0.107,0.926,0.053c-0.238-0.154-0.77-0.365-1.086-0.754
		c-0.654-0.82,0.01-1.97,1.676-1.315c-1.742-3.181-7.311-2.094-10.029-2.943c-0.445,0.041-0.678-0.104-0.986-0.253
		c0.305,0.639,0.551,1.24,0.883,1.775C317.543,137.869,321.617,138.326,323.969,140.607z"/>
	<path fill="none" d="M311.869,136.782c-1.564,1.404-1.732,0.937-1.889,1.224c0.359-0.642,0.719-1.283,1.082-1.924
		c-0.672,0.563-1.318,1.209-2.031,1.71c-0.375,0.26-1.055,0.488-1.08,1.031c-0.02,0.375,0.297,0.624,0.555,0.839
		c0.129,0.109,0.766,0.771,0.896,0.72c4.898-1.984,6.924,3.033,12.824,3.668c-1.494-1.558-0.037-2.843,1.582-2.036
		c-0.785-3.344-8.268-3.688-9.014-4.056c-1.205-0.599-0.738-1.788-1.283-2.912C312.961,135.648,312.48,136.247,311.869,136.782z"/>
	<path fill="none" d="M334.551,54.251c-0.666-0.142-1.725,1.837-1.324,2.151c-0.244-0.191-0.49-0.385-0.734-0.579l0.111,1.903
		c-0.402-0.802-1.137-1.609-1.994-1.916c0,0.446-0.857,2.122-0.576,2.402c-0.445-0.436-0.891-0.872-1.336-1.307
		c-0.143-0.141-0.301-0.288-0.5-0.318c-0.281-0.044-0.549,0.172-0.66,0.435c-0.338,0.785-0.523,2.05-0.535,2.903
		c-0.225-0.67-0.863-2.006-1.766-1.466c-0.244,0.146-0.395,0.407-0.504,0.668c-0.289,0.702-0.213,1.405-0.213,2.137
		c-0.693-0.111-0.803-1.093-1.264-1.525c-0.25,0.591-0.402,1.255-0.59,1.877c-0.291-0.803-0.926-1.475-1.713-1.811
		c-0.338,1.22-0.658,2.431-0.975,3.657c-0.537-0.964-1.076-1.928-1.615-2.891c-0.533,4.04,0.221,8.541-0.57,13.324
		c-0.16,0.333-4.871,37.855-24.898,53.425c-0.345,0.716-0.716,1.424-1.107,2.119c5.307-5.556,8.491-5.064,15.652-17.022
		c1.779-2.987,3.305-6.121,4.613-9.372c-0.9,3.385-2.24,6.667-3.912,9.766c-6.217,11.599-13.298,15.477-17.157,17.985
		c-0.169,0.279-0.095,0.099-0.403,0.996c1.351-0.712,2.941-1.426,4.418-1.754c-1.327,1.343-3.349,2.613-5.062,3.492
		c-0.416,1.032-0.855,2.052-1.321,3.069c0.332,5.061,4.159,3.365,6.801,6.113c-0.231-0.246,3.45-3.911,3.683-4.188
		c-0.257,0.307,0.153,3.332,2.112,2.701c0.573-0.179,1.03-0.617,1.418-1.081c0.48-0.577,0.89-1.215,1.22-1.892
		c0.766,5.023,4.397-3.493,4.44-3.611c0.021,0.565,0.02,1.142,0.074,1.706c1.986-3.051-0.785-1.446,4.129-6.591
		c2.434-4.544,3.354-6.819,4.555-10.394c-0.107,4.961-2.916,10.221-6.066,14.058c-0.115,0.268-0.236,0.54-0.338,0.801l4.1-4.851
		c-0.461,1.029-1.023,2.073-1.369,3.128c4.4-2.426,9.139-10.643,10.426-12.621c0.531-1.607,0.234-0.738,1.293-4.151
		c0.096,1.384-0.057,2.78-0.346,4.148c9.467-14.803,6.305-15.413,11.191-23.981c-0.369,2.24-1.219,4.991-1.982,7.13
		c0.209,0.371,0.504,0.896,0.504,0.896c3.541-13.266,10.086-26.864,4.061-43.895c-0.291-0.832-0.727-1.592-1.162-2.351
		c-0.586-0.837-1.17-1.675-1.754-2.512C335.33,54.771,335.014,54.351,334.551,54.251z"/>
	<path fill="none" d="M324.592,139.316c1.141,0.882,2.059,1.215,2.766,2.665l0.039-0.016c-0.346-1.224-1.482-2.692-2.791-2.687
		L324.592,139.316z"/>
	<path fill="none" d="M316.668,147.841c1.809,1.631,2.25,1.304,3.76,3.915l0.063-0.025c-0.73-2.01-1.639-3.719-3.797-3.949
		L316.668,147.841z"/>
	<path fill="none" d="M271.47,150.428c-0.748,1.158-1.447,2.091-2.277,3.092c4.883-4.488,15.258-15.948,20.164-22.7
		c-1.265,1.614-3.316,3.65-4.465,4.524c0.655-1.05,1.41-2.153,3.742-5.542C284.117,133.147,281.697,140.565,271.47,150.428z"/>
	<path fill="none" d="M279.284,150.839c2.6-3.791,3.361-4.904,3.557-5.186c0.008-0.012,0.012-0.021,0.019-0.029
		c0-0.041,2.704-5.533,2.721-5.574c-2.526,4.175-5.385,8.172-8.687,11.659c-0.143,0.153-0.366-0.069-0.232-0.22
		c3.817-4.257,6.549-9.108,9.367-13.951c-0.778,0.926-8.52,13.389-18.528,18.909c-1.144,0.896-2.316,1.744-3.536,2.545
		c-0.387,0.785-0.826,1.542-1.305,2.279c-0.063,0.724-0.102,1.422-0.111,2.219C268.647,162.593,277.844,152.994,279.284,150.839z"/>
	<path fill="none" d="M281.611,149.457c-1.45,2.253-4.088,6.718-12.266,11.865c3.203-0.083,9.229-6.065,11.851-8.519
		c1.269-1.774,4.682-5.496,6.038-11.372c-0.158-0.221-0.336-0.432-0.517-0.62C285.205,143.792,283.421,146.636,281.611,149.457z"/>
	<path fill="none" d="M314.111,151.897c-0.08-0.106-0.32-1.043-0.33-1.274c-0.08-2.319-6.162-6.025-8.047-8.053
		c-0.438-0.467-0.693-1.183-0.568-1.655c-0.334,0.148-0.664,0.253-1.092,0.202c-0.167-0.019-1.516-0.465-1.333-0.771
		c-0.565,0.947-1.129,1.902-1.798,2.777c-0.29,0.374-1.43-0.877-2.402-1.106c0.092,3.143-2.744,4.794-3.07,6.681
		c0.859-0.716,2.16,0.292,1.996,1.455c1.233-0.441,2.321-3.182,3.464-4.201c1.591-1.429,1.842-1.772,3.256,0.276
		c1.986,2.873,6.212,8.158,8.134,6.458C310.746,150.636,312.018,149.059,314.111,151.897z"/>
	<path fill="none" d="M313.387,152.565c0.029,0.041,1.676,0.873,2.273,3.388C314.066,150.252,312.051,150.758,313.387,152.565z"/>
	<path fill="none" d="M294.594,153.205c0.563-1.566,1.24-2.063,2.047-3.492l-0.029-0.028
		C295.018,149.755,294.77,151.849,294.594,153.205z"/>
	<path fill="none" d="M301.679,33.385c-0.287,0.645-0.542,1.317-0.773,2.007c0.331-0.616,0.687-1.232,0.884-1.874
		C301.75,33.472,301.717,33.432,301.679,33.385z"/>
	<path fill="none" d="M280.997,134.095c-1.107,0.517-1.152,0.53-1.746,0.793c0.235,0.142,0.47,0.291,0.68,0.441
		C280.306,134.896,280.656,134.487,280.997,134.095z"/>
	<path fill="none" d="M299.033,54.069c0.032-0.088,0.064-0.935,0.011-0.901c-0.461,0.293-0.926,0.583-1.386,0.873
		c0.563-2.416,0.609-1.58,0.641-2.468c-0.772,1.039-1.176,1.264-1.886,3.536c-0.006,0.119-0.013,0.244-0.026,0.361
		c0.667-0.348,1.358-0.649,2.069-0.898C298.765,54.464,298.901,54.417,299.033,54.069z"/>
	<path fill="none" d="M273.697,147.157c-0.552-0.224-0.94-0.687-1.069-1.17c0.694,0.026,1.507,0.473,1.614,0.512
		c9.446-11.394,7.232-10.519,10.883-14.473c-0.439,0.241-0.881,0.476-1.32,0.703c-2.715,3.155-5.532,6.323-8.414,9.509
		c-0.021,0.041-13.008,14.359-13.048,14.401c0.763-1.292,1.752-2.773,2.89-4.308c-0.82-0.164-1.339-0.816-1.364-1.397
		c0.917,0.221,1.767,0.789,1.809,0.809c1.04-1.366,2.18-2.764,3.379-4.09c-0.613-0.125-1.209-0.5-1.559-1.089
		c0.157-0.01,0.318-0.084,0.44-0.227c0.524,0.282,1.226,0.583,1.815,0.553c3.203-3.372,0.196,0.096,3.851-4.184
		c-0.711-0.254-1.301-0.863-1.403-1.542c0.431,0.202,1.323,0.682,1.99,0.857c1.739-2.034,3.487-4.069,5.235-6.098
		c-0.355-0.136-0.68-0.388-0.9-0.691c-0.041,0.026-4.88,4.473-4.921,4.51c-11.52,10.823-11.041,12.6-14.951,21.056
		C262.37,159.827,273.623,147.246,273.697,147.157z"/>
	<path fill="none" d="M312.502,57.667c-0.273-0.285-0.529-0.592-0.758-0.913c-0.076,0.263-0.174,0.518-0.314,0.778
		C311.795,57.564,312.148,57.608,312.502,57.667z"/>
	<path fill="none" d="M269.215,138.146c-2.442,5.408-2.497,7.687-2.495,7.731c0.876-1.331,2.581-3.452,4.475-8.026
		C270.524,138.024,269.858,138.14,269.215,138.146z"/>
	<path fill="none" d="M273.25,130.547c-0.561,2.581-2.008,4.161-2.57,4.999c0.021-0.057,0.055-0.116,0.092-0.174
		c-0.09,0.104-0.175,0.213-0.268,0.319c4.286-1.34,3.475-1.224,6.908-3.946c-0.308,0.704-0.611,1.405-0.92,2.109
		c5.389-2.11,11.005-5.773,15.574-9.162c0.617-0.902,1.314-1.972,2.361-3.409c-0.208,0.754-0.47,1.485-0.767,2.2
		c1.22-0.928,2.337-1.823,3.329-2.633c7.658-7.84,13.214-21.216,16.376-31.711c-0.199,0.58-0.338,0.989-0.428,1.256
		c0.637-2.14,3.705-13.081,3.285-23.505c-0.125-3.069,0.037-6.601-3.318-7.887c-3.707-1.422-12.383,1.867-15.885,4.315
		c-3.036,2.267-7.485,6.235-9.297,8.814c1.85-3.675,5.183-6.732,8.41-9.184c1.271-0.967,7.017-5.73,14.502-5.46
		c-0.613-0.619-1.299-1.437-1.416-2.277c-0.143,0.089-2.213,1.301-2.26,1.327c-0.422-1.246-0.365-0.995-0.693-2.056
		c-1.094,0.837-2.035,1.425-2.275,1.586c-0.184-0.366-0.033-0.075-0.355-0.704c-0.567-0.227-0.966-0.728-1.143-1.319
		c-0.604,0.143-1.117,0.201-1.729,0.128c-0.037,0.043-0.07,0.085-0.107,0.127c-2.267,0.68-2.454,0.937-4.165,1.641
		c1.203-0.226,2.413-0.454,3.617-0.682c0.013,0.049,0.039,0.1,0.072,0.141c-2.022,0.672-4.32,1.84-7.831,5.081l0.075,0.008
		c0.125,0.241,0.194,0.482,0.246,0.721c0.04-0.012,2.387-0.516,3.671-0.728l0.033,0.099c-0.649,0.339-1.305,0.657-1.964,0.962
		c-2.773,1.262-1.374,0.637-2.833,0.99c0.111-0.351,0.172-1.232,0.703-1.989c-3.542,3.288-6.27,7.049-8.45,11.403
		c1.179-3.906,3.423-7.567,6.155-10.556c-0.051-0.103-0.116-0.226-0.202-0.399c-9.643,9.48-13.793,20.005-17.188,31.736
		c0.448-0.754,0.986-1.385,1.561-2.068c1.805-2.15,2.284-5.321,5.929-9.969c-0.688,0.874-1.022,2.469-1.455,3.508
		c-0.418,1.014-0.843,2.03-1.262,3.046c-0.649,1.589-1.303,3.172-1.902,4.781c-1.003,2.681-1.797,5.414-2.406,8.211
		c-0.375,1.699-0.7,3.412-1.021,5.124c-0.396,2.136-0.556,4.285-1.228,6.335c2.511-2.005,4.642-4.481,6.24-7.269
		c-0.017,1.293-0.035,2.584-0.053,3.875c2.356-2.438,4.327-5.248,5.818-8.295l-0.154,3.56c1.493-1.19,2.757-2.664,3.709-4.32
		c-0.852,1.47-1.84,6.272-3.681,7.247c-1.065,0.564-0.921-0.761-0.917-1.451c-1.683,3.155-3.959,5.994-6.668,8.321
		c0.153-1.248,0.307-2.499,0.462-3.751c-1.063,1.27-2.028,2.491-2.901,3.888c-0.647,1.028-1.832,2.159-2.25,3.301
		c-5.541,15.078-6.807,16.711-6.386,19.61c0.644-0.538,1.283-1.075,1.93-1.606c1.169-4.417,3.34-8.101,5.811-10.599
		c-0.626,1.123-1.537,2.536-1.291,3.874c0.209,1.134,1.441,1.778,1.871,0.414l0.104-0.005c0.114,0.396-0.077,0.852-0.401,1.156
		c-0.821,0.773-2.071,0.27-2.285-0.62c-2.147,4.334-2.467,5.074-3.191,8.519c0.01,0.008,0.015,0.015,0.022,0.024l0.164-0.122
		C269.804,135.13,272.025,132.001,273.25,130.547z"/>
	<path fill="none" d="M314.133,58.103c0.254,0.096,0.498,0.208,0.732,0.328c-0.207-0.291-0.398-0.594-0.572-0.907
		c-0.334,0.383-0.346,0.396-0.346,0.396C313.988,57.959,314.064,58.025,314.133,58.103z"/>
	<path fill="none" d="M300.527,50.708c0.111,0.814,0.008,2.031,0.29,2.753c0.453-0.524,0.812-1.118,1.208-1.684
		c0.237,0.358,0.474,0.714,0.71,1.07c0.295-0.572,0.299-1.26,0.147-1.885c-0.28-1.147-1.337-2.005-0.836-3.227
		c-0.055,0.134,0.41,0.771,0.468,0.926c0.097,0.254,0.125,0.445,0.306,0.667c0.4,0.489,0.988,0.786,1.566,1.008
		c0,0.016-0.624,2.035-0.652,2.27c-0.067,0.522-0.052,1.171,0.164,1.661c0.374,0.866,0.3,0.691,2.922-1.551
		c0.146,0.533,0.406,1.298,0.701,2.576c-0.002-0.2,1.846-0.986,2.047-1.076c0.461-0.211,0.492-0.362,0.764-0.021
		c0.08,0.103,0.041,0.515,0.082,0.659c0.109,0.381,0.357,0.754,0.529,1.108c-0.006-0.332,0.406-0.994,0.568-1.275
		c0.764,0.722,1.424,1.268,2.264,1.873c0.449-0.482,0.934-0.808,1.412-1.267c-0.051,0.049,0.41,1.327,0.441,1.433
		c0.201,0.712,0.701,1.361,1.295,1.794c-0.008-0.005,1.031-2.025,1.125-2.197c-0.135,0.244,1.721,2.391,1.955,2.647
		c0.713-0.768,0.951-1.945,0.592-2.931c0.955,0.451,1.725,1.28,2.105,2.266c0.066-0.772,0.598-1.446,0.945-2.131
		c0.055-0.108,0.137-0.233,0.258-0.227c0.086,0.004,0.152,0.073,0.209,0.138c0.406,0.47,0.813,0.938,1.219,1.408
		c0.156-0.299,0.313-0.599,0.467-0.897c0.02,0.211,0.277,0.343,0.48,0.281s0.338-0.267,0.373-0.477
		c0.041-0.226,0.066-2.046-0.016-2.085c0.041,0.019,2.32,1.289,2.678,1.98c-0.092-0.792,0.277-1.907,0.371-2.705
		c0.436,0.248,0.992,1.169,1.457,1.349c0.133-0.224,0.186-0.505,0.26-0.761c0.457,0.248,0.98,0.628,1.461,0.766
		c0.105-0.916-0.051-1.856-0.182-2.763c0.287,0.319,0.572,0.639,0.859,0.959c0.006-0.707,0.105-1.46-0.074-2.149
		c-0.068-0.269-0.418-0.771-0.057-0.947c0.734-0.357,1.191-1.386,1.654-2.038c-1.029,1.428-0.098,3.267,0.443,4.665
		c0.135,0.347,0.27,0.696,0.404,1.044c0.02-1.097,0.135-2.571-0.061-2.773c0.102,0.105,0.221,0.262,0.348,0.476
		c0.52-4.929,1.213-6.56-0.473-13.47c-0.178-0.736-1.068-2.586-0.875-3.269c-0.189,0.674-0.361,1.367-0.523,2.072
		c-0.156-1.123-0.1-2.275,0.113-3.399c-0.227-0.723,1.523-6.482,6.912-6.777c-1.775-0.779-4.611,1.098-6.207,1.753
		c0.578,0.028,1.156,0.057,1.732,0.084c-1.055,0.535-2.111,1.069-3.17,1.602c0.473,0.062,0.945,0.125,1.418,0.187
		c-2.361,1.319-4.066,4.939-3.779,7.658c0.049,0.464,0.102,0.902,0.057,1.456c0.254,0.847,0.156,1.571-0.135,2.115
		c-0.041-0.696-0.287-1.751-0.98-2.596c-0.361,0.483-0.523-0.239-2.066-0.419c1.027,1.163,1.322,3.687,0.74,4.942
		c-0.906,1.95-4.279,3.03-6.779,1.477c-3.184-1.98-1.848-5.828,0.914-6.567c0.703-0.402,1.469-0.668,2.268-0.81
		c4.941-3.103,3.914-5.964,6.975-8.8c1.627-1.505,5.434-2.9,6.545-2.756c0.789-0.166,1.279-0.124,1.279-0.124
		c-3.678-1.173-7.584,1.091-10.904,2.951c0.859-1.014,1.83-1.823,2.947-2.527c-1.91,0.684-3.6,1.528-5.379,2.907
		c1.412-0.197,2.672,0.169,3.588,0.864c-1.359-0.717-3.1-0.76-4.645,0.03c-0.049,0.043-2.012,1.856-2.033,1.923
		c0.291-0.919,1.367-2.85,0.484-3.039c-0.396-0.043-0.982,0.156-1.26,0.402c-0.137,0.122-0.09,0.151-0.1,0.076l-0.928,0.116
		l-0.104-0.718c0.041-0.034-0.367,0.089-2.354,2.896c-0.084-0.468-0.025-1.062,0.293-1.712c-0.498-0.304-1.414-0.84-1.83-0.999
		c-1.363-0.517-1.467,0.526-1.807,0.715c-0.084-0.099-1.447-1.588-1.484-1.629c-0.115,0.364-0.332,1.06-0.486,1.561
		c0.641,0.566,1.018,1.179,1.191,1.725c-0.604-0.381-1.326-0.934-2.33-1.54c-0.977-0.603-1.842-0.904-2.107-1.606
		c-0.863-0.327-1.895-0.613-3.078-0.759c0.773,0.365,1.592,0.904,2.109,1.584c-1.084,0.028-2.318-0.456-3.266-1.051
		c0.434,0.53,0.813,1.101,1.113,1.709c-0.551-0.455-1.148-0.865-1.771-1.236c-1.753-1.496-3.619-2.84-5.784-3.477
		c-0.137,0.007-0.27,0.012-0.401,0.023c0.05,0.324,0.154,0.638,0.28,0.943c0.443,0.205,0.875,0.45,1.286,0.718
		c-0.94-0.184-1.89-0.268-2.827-0.237c-0.283-0.061-1.409-0.391-2.87-0.522c-0.502,0.205-1.047,0.45-1.598,0.778
		c0.313-0.184,1.72,1.33,1.968,1.504c0.945,0.661,2.176,0.774,3.281,1.113c-0.989-0.577-1.991-1.142-3.004-1.678
		c1.364-0.603,5.713-0.222,9.711,2.524c2.563,2.781,3.656,5.765,6.561,7.648c5.709,3.694,1.23,8.982-2.299,7.76
		c-5.059-1.761-3.26-5.901-0.715-7.188c-0.906-0.072-2.01,0.174-2.031,0.175c-1.127,0.65-1.758,1.922-1.785,2.421
		c0.123-2.193,0.137-4.05-0.332-6.215c-0.287-1.325-2.02-3.994-3.708-3.878c0.605-0.04,1.21-0.082,1.814-0.123
		c-1.344-0.827-3.417-1.322-4.95-0.785c2.232,1.318,4.46,2.724,4.617,5.658c-0.342-0.54-0.604-0.949-0.891-1.348
		c-0.269,0.594-0.703,1.171-0.96,1.714c-1.272,2.694-1.865,5.644-2.086,8.601c-0.095,1.257-0.321,2.732-0.13,3.97
		c0.225,1.47,0.485,2.661-0.362,4.032C299.51,52.073,300.101,51.438,300.527,50.708z"/>
	<path fill="none" d="M306.529,35.213c0.367,1.87,0.27,2.718,0.166,3.061c0.539-1.014,1.854-1.749,3.256-1.295
		c-0.73-0.723-1.379-1.548-2.094-2.291c0.043,0.336,0.086,0.671,0.129,1.007c-0.764-1.225-1.621-2.394-2.57-3.488
		C305.85,33.197,306.324,34.148,306.529,35.213z"/>
	<path fill="none" d="M322.688,39.89c-3.025,3.461,2.094,7.12,4.875,4.133c1.906-2.04,0.709-5.01-1.426-5.451
		C324.934,38.856,323.738,39.399,322.688,39.89z"/>
	<path fill="none" d="M330.291,36.002c0.158-0.604,0.41-1.185,0.738-1.718c-0.934,0.841-1.773,1.507-2.432,2.702
		c0.727,0.254,1.48,0.477,2.039,1.017c-0.182-0.58,0.355-2.526,0.758-3.139C331.076,35.288,330.709,35.672,330.291,36.002z"/>
	<path fill="none" d="M311.014,45.096c1.262,0.061,2.43-0.46,2.998-1.494c-0.053-1.138,0.143-1.95-0.627-3.088
		c-1.223-0.876-1.67-1.01-2.736-1.542c-0.369,0.027-0.746,0.134-1.107,0.35C306.346,41.227,307.898,44.939,311.014,45.096z"/>
	<path fill="#7CAEE1" d="M263.947,163.874c0.545-0.142,1.685-0.354,4.357-1.922c0.719,0.299,1.944,0.354,2.413-0.234
		c4.137-1.202,7.723-3.586,10.791-6.622c2.826-2.791,7.936-9.04,9.777-12.711c0.008,0.44,2.873,0.751,3.617,2.594
		c0.647-0.821,1.525-1.786,2.209-2.68c-0.045,0.988-0.013,1.625-0.273,2.128c-1.153,1.576-2.497,3.121-2.031,4.941
		c-0.052,0.082-2.09,3.299-0.25,6.54c0.061-2.912,0.534-2.202,2.149-4.325c3.85,0.418,4.288-8.499,6.866-4.671
		c2.711,4.937,5.479,7.618,9.313,6.664c0.084-0.022,1.537,1.241,2.703,4.402c-0.039-0.104,0.248-0.656,0.275-0.798
		c0.76-3.359-1.008-4.2-0.846-4.947c0.195-0.904,0.016-1.231-0.449-2.171c1.201,0.744,2.785,1.415,3.902,0.612
		c0.967,0.79,1.725,1.679,2.395,2.751c-0.1-0.163,0.072-0.955,0.055-1.184c-0.125-2.344-1.305-3.101-1.467-3.31
		c1.018-4.546-6.15-5.396-7.721-6.616c0.084-0.148,0.145-0.746,0.279-0.873c3.65,0.63,7.959,4.619,11.373,3.231
		c1.311,1.416,1.383,2.053,1.346,4.096c0.045-0.145,2.648-2.899,0.246-5.819c0.119-0.621-0.094-1.224-0.512-1.781
		c0.342,0.03,0.727-0.01,1.049-0.156c1.047,0.578,1.609,1.677,2.309,2.646c-0.254-0.362,0.996-2.608-1.623-4.65
		c-0.908-4.816-8.947-3.086-11.924-4.158c-0.289-2.133,1.443-1.514,7.924-10.609c-0.596,1.477-0.539,1.289-1.682,3.991
		c0.797-0.817,1.463-1.746,2.041-2.726c0.291-0.495,0.561-1.004,0.807-1.525c7.232-9.157,10.139-19.754,10.209-19.942
		c0.023,0.042,1.213,2.153,1.139,2.02c0,0,0.283-0.95,0.283-0.955c4.662-14.512,8.961-25.358,6.383-39.046
		c-1.688-8.231-3.682-9.755-4.523-11.559c-0.094-0.8-0.057-1.636,0.141-2.261c0.047,0.056,0.105,0.106,0.152,0.168
		c-0.299-6.569,2.404-9.324-1.93-18.932c-0.176-0.387,0.805-1.998,1.008-2.37c1.365-2.576,4.783-5.311,5.896-3.759
		c-0.598-0.771-0.738-1.533-1.607-2.024c-2.396-1.365-5.191-0.863-7.607,0.464c-2.543-0.161-5.566,1.063-7.594,3.558
		c0.494-0.606-0.73-1.258-1.125-1.31c-0.941-0.122-1.381,0.528-1.828-0.555c-0.826,0.224-1.693,0.819-2.305,1.416
		c-0.727-0.351-1.365-0.858-2.176-1.032c-0.754-0.162-1.328,0.337-1.994,0.25c-0.57-0.08-1.182-1.133-1.758-0.811
		c-0.301,0.166-0.5,1.603-0.234,1.835c-1.783-1.55-4.195-2.065-6.551-1.936c-0.553-0.21-1.137-0.372-1.738-0.403
		c-2.006-1.84-4.355-2.741-7.029-2.023c0.241,0.265,0.485,0.527,0.731,0.793c-2.437-0.89-5.121-0.816-6.873,0.448
		c0.381-0.068,0.749-0.111,1.119-0.147c-0.809,0.379-1.07,0.642-1.986,1.234c1.125,0.225,1.398,0.101,2.28,0.568
		c0.979,0.515,1.957,1.313,2.972,1.703c-0.112,0.04-0.219,0.091-0.325,0.147c-0.158-0.013-0.315-0.028-0.474-0.034
		c1.774,1.071,3.67,1.772,5.369,3.578c-3.673,5.914-3.269,14.187-3.415,16.931c0.052,1.397-1.58,2.084-2.604,6.045
		c-3.486,2.532-6.383,3.884-11.422,9.8l-0.895,1.151c-7.926,9.684-11.244,25.662-11.222,27.281c0.283-0.25,1.869-1.193,2.063-1.541
		c-0.597,1.848-1.081,3.684-1.42,5.628c-2.149,7.164-2.91,14.464-3.032,15.121c0.268-0.129,1.043-0.502,1.07-0.515
		c-4.916,15.359-10.478,22.704-6.635,25.084c1.231-1.113,0.49-0.446,1.478-1.333c0.043,0.09,0.094,0.181,0.141,0.272
		c-0.218,1.344-0.259,2.113-0.376,3.186c2.451-2.279,0.897-0.834,2.818-2.176c-1.174,2.34-1.828,4.78-2.008,6.966
		c-1.391,2.548-0.772,1.077-4.197,6.402c-1.255,1.956-3.427,8.513-4.351,10.359c-0.033,0.068,1.126,0.127,1.233,0.109
		c0.525-0.097,3-1.406,3.546-1.727c-1,2.252-0.556,4.319-0.577,4.538h0.002C261.891,164.552,262.799,164.561,263.947,163.874z
		 M262.547,163.49c0.01-0.797,0.049-1.495,0.111-2.219c0.479-0.737,0.918-1.494,1.305-2.279c1.22-0.801,2.393-1.649,3.536-2.545
		c10.009-5.52,17.75-17.983,18.528-18.909c-2.818,4.843-5.55,9.694-9.367,13.951c-0.134,0.151,0.09,0.373,0.232,0.22
		c3.302-3.487,6.16-7.484,8.687-11.659c-0.017,0.041-2.721,5.533-2.721,5.574c-0.007,0.008-0.011,0.017-0.019,0.029
		c-0.195,0.282-0.957,1.395-3.557,5.186C277.844,152.994,268.647,162.593,262.547,163.49z M289.357,130.82
		c-4.906,6.752-15.281,18.212-20.164,22.7c0.83-1.001,1.529-1.934,2.277-3.092c10.227-9.863,12.646-17.281,17.164-20.626
		c-2.332,3.389-3.087,4.492-3.742,5.542C286.041,134.47,288.092,132.435,289.357,130.82z M281.196,152.802
		c-2.621,2.454-8.647,8.436-11.851,8.519c8.178-5.147,10.815-9.612,12.266-11.865c1.811-2.82,3.594-5.664,5.106-8.646
		c0.181,0.188,0.358,0.399,0.517,0.62C285.877,147.307,282.464,151.028,281.196,152.802z M294.594,153.205
		c0.176-1.356,0.424-3.449,2.018-3.52l0.029,0.028C295.834,151.142,295.157,151.638,294.594,153.205z M312.32,152.687
		c-1.922,1.7-6.148-3.585-8.134-6.458c-1.414-2.048-1.665-1.705-3.256-0.276c-1.143,1.019-2.23,3.76-3.464,4.201
		c0.164-1.163-1.137-2.171-1.996-1.455c0.326-1.887,3.162-3.538,3.07-6.681c0.973,0.229,2.112,1.48,2.402,1.106
		c0.669-0.875,1.232-1.83,1.798-2.777c-0.183,0.306,1.166,0.752,1.333,0.771c0.428,0.051,0.758-0.054,1.092-0.202
		c-0.125,0.472,0.131,1.188,0.568,1.655c1.885,2.028,7.967,5.734,8.047,8.053c0.01,0.231,0.25,1.168,0.33,1.274
		C312.018,149.059,310.746,150.636,312.32,152.687z M315.66,155.954c-0.598-2.515-2.244-3.347-2.273-3.388
		C312.051,150.758,314.066,150.252,315.66,155.954z M320.49,151.731l-0.063,0.025c-1.51-2.611-1.951-2.284-3.76-3.915l0.025-0.059
		C318.852,148.012,319.76,149.721,320.49,151.731z M318.576,147.909c-2.047-2.299-4.875-0.591-0.744,2.283
		c-0.945,0.53-2.67-0.571-3.633-1.065c-0.926-2.79-4.658-3.711-6.674-6.419c-0.156-0.429-0.805-0.904-1.307-2.423
		c0.094-0.04,0.189-0.079,0.281-0.122c0.93,1.185,2.48,1.986,4.17,2.672c0.043,0.037,0.1,0.06,0.162,0.063
		C314.266,144.276,318.182,145.212,318.576,147.909z M325.398,146.564l-0.066,0.01c-0.643-2.187-1.482-2.269-2.219-3.847l0.041-0.05
		C324.652,143.031,325.367,145.207,325.398,146.564z M327.396,141.965l-0.039,0.016c-0.707-1.45-1.625-1.783-2.766-2.665
		l0.014-0.038C325.914,139.273,327.051,140.741,327.396,141.965z M315.455,135.648c2.719,0.849,8.287-0.238,10.029,2.943
		c-1.666-0.655-2.33,0.495-1.676,1.315c0.316,0.389,0.848,0.6,1.086,0.754c-0.322,0.054-0.629,0.036-0.926-0.053
		c-2.352-2.281-6.426-2.739-8.617-3.437c-0.332-0.535-0.578-1.136-0.883-1.775C314.777,135.544,315.01,135.689,315.455,135.648z
		 M314.795,137.958c0.746,0.368,8.229,0.712,9.014,4.056c-1.619-0.807-3.076,0.478-1.582,2.036c-5.9-0.635-7.926-5.652-12.824-3.668
		c-0.131,0.051-0.768-0.611-0.896-0.72c-0.258-0.215-0.574-0.464-0.555-0.839c0.025-0.543,0.705-0.771,1.08-1.031
		c0.713-0.501,1.359-1.147,2.031-1.71c-0.363,0.641-0.723,1.282-1.082,1.924c0.156-0.287,0.324,0.18,1.889-1.224
		c0.611-0.536,1.092-1.134,1.643-1.736C314.057,136.17,313.59,137.359,314.795,137.958z M337.357,57.673
		c0.436,0.759,0.871,1.519,1.162,2.351c6.025,17.031-0.52,30.629-4.061,43.895c0,0-0.295-0.525-0.504-0.896
		c0.764-2.139,1.613-4.89,1.982-7.13c-4.887,8.568-1.725,9.178-11.191,23.981c0.289-1.368,0.441-2.764,0.346-4.148
		c-1.059,3.413-0.762,2.544-1.293,4.151c-1.287,1.978-6.025,10.195-10.426,12.621c0.346-1.055,0.908-2.099,1.369-3.128l-4.1,4.851
		c0.102-0.261,0.223-0.533,0.338-0.801c3.15-3.837,5.959-9.097,6.066-14.058c-1.201,3.575-2.121,5.85-4.555,10.394
		c-4.914,5.145-2.143,3.54-4.129,6.591c-0.055-0.564-0.053-1.141-0.074-1.706c-0.043,0.118-3.674,8.634-4.44,3.611
		c-0.33,0.677-0.739,1.315-1.22,1.892c-0.388,0.464-0.845,0.902-1.418,1.081c-1.959,0.631-2.369-2.394-2.112-2.701
		c-0.232,0.277-3.914,3.942-3.683,4.188c-2.642-2.748-6.469-1.052-6.801-6.113c0.466-1.017,0.905-2.037,1.321-3.069
		c1.713-0.879,3.734-2.149,5.062-3.492c-1.477,0.328-3.067,1.042-4.418,1.754c0.309-0.897,0.234-0.717,0.403-0.996
		c3.858-2.508,10.939-6.386,17.157-17.985c1.672-3.099,3.012-6.381,3.912-9.766c-1.309,3.251-2.834,6.385-4.613,9.372
		c-7.161,11.958-10.345,11.466-15.652,17.022c0.392-0.695,0.763-1.403,1.107-2.119c20.027-15.57,24.738-53.092,24.898-53.425
		c0.791-4.783,0.037-9.284,0.57-13.324c0.539,0.963,1.078,1.927,1.615,2.891c0.316-1.226,0.637-2.437,0.975-3.657
		c0.787,0.336,1.422,1.008,1.713,1.811c0.188-0.622,0.34-1.286,0.59-1.877c0.461,0.432,0.57,1.414,1.264,1.525
		c0-0.732-0.076-1.435,0.213-2.137c0.109-0.261,0.26-0.522,0.504-0.668c0.902-0.54,1.541,0.796,1.766,1.466
		c0.012-0.853,0.197-2.118,0.535-2.903c0.111-0.263,0.379-0.479,0.66-0.435c0.199,0.03,0.357,0.177,0.5,0.318
		c0.445,0.435,0.891,0.871,1.336,1.307c-0.281-0.28,0.576-1.956,0.576-2.402c0.857,0.307,1.592,1.114,1.994,1.916l-0.111-1.903
		c0.244,0.194,0.49,0.388,0.734,0.579c-0.4-0.314,0.658-2.293,1.324-2.151c0.463,0.099,0.779,0.52,1.053,0.91
		C336.188,55.999,336.771,56.836,337.357,57.673z M301.679,33.385c0.038,0.046,0.071,0.087,0.11,0.133
		c-0.197,0.642-0.553,1.258-0.884,1.874C301.137,34.703,301.392,34.03,301.679,33.385z M299.173,48.52
		c-0.191-1.238,0.035-2.713,0.13-3.97c0.221-2.957,0.813-5.907,2.086-8.601c0.257-0.543,0.691-1.12,0.96-1.714
		c0.286,0.399,0.549,0.808,0.891,1.348c-0.157-2.934-2.385-4.34-4.617-5.658c1.533-0.537,3.606-0.042,4.95,0.785
		c-0.604,0.041-1.209,0.083-1.814,0.123c1.688-0.116,3.421,2.553,3.708,3.878c0.469,2.165,0.455,4.022,0.332,6.215
		c0.027-0.499,0.658-1.771,1.785-2.421c0.021-0.001,1.125-0.247,2.031-0.175c-2.545,1.287-4.344,5.427,0.715,7.188
		c3.529,1.222,8.008-4.066,2.299-7.76c-2.904-1.883-3.998-4.867-6.561-7.648c-3.999-2.746-8.347-3.127-9.711-2.524
		c1.013,0.536,2.015,1.101,3.004,1.678c-1.105-0.339-2.336-0.452-3.281-1.113c-0.248-0.174-1.654-1.688-1.968-1.504
		c0.551-0.328,1.096-0.573,1.598-0.778c1.461,0.131,2.587,0.461,2.87,0.522c0.938-0.031,1.887,0.053,2.827,0.237
		c-0.411-0.268-0.843-0.513-1.286-0.718c-0.126-0.305-0.23-0.619-0.28-0.943c0.132-0.011,0.265-0.016,0.401-0.023
		c2.165,0.637,4.03,1.981,5.784,3.477c0.623,0.371,1.221,0.781,1.771,1.236c-0.301-0.608-0.68-1.179-1.113-1.709
		c0.947,0.595,2.182,1.079,3.266,1.051c-0.518-0.68-1.336-1.219-2.109-1.584c1.184,0.146,2.215,0.432,3.078,0.759
		c0.266,0.702,1.131,1.003,2.107,1.606c1.004,0.606,1.727,1.159,2.33,1.54c-0.174-0.546-0.551-1.159-1.191-1.725
		c0.154-0.501,0.371-1.197,0.486-1.561c0.037,0.041,1.4,1.53,1.484,1.629c0.34-0.189,0.443-1.232,1.807-0.715
		c0.416,0.159,1.332,0.695,1.83,0.999c-0.318,0.65-0.377,1.244-0.293,1.712c1.986-2.807,2.395-2.93,2.354-2.896l0.104,0.718
		l0.928-0.116c0.01,0.075-0.037,0.046,0.1-0.076c0.277-0.246,0.863-0.445,1.26-0.402c0.883,0.189-0.193,2.12-0.484,3.039
		c0.021-0.067,1.984-1.88,2.033-1.923c1.545-0.79,3.285-0.747,4.645-0.03c-0.916-0.695-2.176-1.061-3.588-0.864
		c1.779-1.379,3.469-2.223,5.379-2.907c-1.117,0.704-2.088,1.513-2.947,2.527c3.32-1.86,7.227-4.124,10.904-2.951
		c0,0-0.49-0.042-1.279,0.124c-1.111-0.144-4.918,1.251-6.545,2.756c-3.061,2.836-2.033,5.697-6.975,8.8
		c-0.799,0.142-1.564,0.408-2.268,0.81c-2.762,0.739-4.098,4.587-0.914,6.567c2.5,1.553,5.873,0.473,6.779-1.477
		c0.582-1.255,0.287-3.779-0.74-4.942c1.543,0.18,1.705,0.902,2.066,0.419c0.693,0.845,0.939,1.9,0.98,2.596
		c0.291-0.544,0.389-1.268,0.135-2.115c0.045-0.554-0.008-0.992-0.057-1.456c-0.287-2.719,1.418-6.339,3.779-7.658
		c-0.473-0.062-0.945-0.125-1.418-0.187c1.059-0.533,2.115-1.067,3.17-1.602c-0.576-0.027-1.154-0.056-1.732-0.084
		c1.596-0.655,4.432-2.532,6.207-1.753c-5.389,0.295-7.139,6.054-6.912,6.777c-0.213,1.124-0.27,2.276-0.113,3.399
		c0.162-0.705,0.334-1.398,0.523-2.072c-0.193,0.683,0.697,2.533,0.875,3.269c1.686,6.91,0.992,8.541,0.473,13.47
		c-0.127-0.214-0.246-0.371-0.348-0.476c0.195,0.202,0.08,1.676,0.061,2.773c-0.135-0.348-0.27-0.697-0.404-1.044
		c-0.541-1.398-1.473-3.237-0.443-4.665c-0.463,0.652-0.92,1.681-1.654,2.038c-0.361,0.176-0.012,0.678,0.057,0.947
		c0.18,0.689,0.08,1.442,0.074,2.149c-0.287-0.32-0.572-0.64-0.859-0.959c0.131,0.907,0.287,1.847,0.182,2.763
		c-0.48-0.138-1.004-0.518-1.461-0.766c-0.074,0.256-0.127,0.537-0.26,0.761c-0.465-0.18-1.021-1.101-1.457-1.349
		c-0.094,0.798-0.463,1.913-0.371,2.705c-0.357-0.691-2.637-1.961-2.678-1.98c0.082,0.039,0.057,1.859,0.016,2.085
		c-0.035,0.21-0.17,0.415-0.373,0.477s-0.461-0.07-0.48-0.281c-0.154,0.298-0.311,0.598-0.467,0.897
		c-0.406-0.47-0.813-0.938-1.219-1.408c-0.057-0.065-0.123-0.134-0.209-0.138c-0.121-0.006-0.203,0.119-0.258,0.227
		c-0.348,0.685-0.879,1.359-0.945,2.131c-0.381-0.986-1.15-1.815-2.105-2.266c0.359,0.986,0.121,2.163-0.592,2.931
		c-0.234-0.256-2.09-2.403-1.955-2.647c-0.094,0.172-1.133,2.192-1.125,2.197c-0.594-0.433-1.094-1.082-1.295-1.794
		c-0.031-0.106-0.492-1.384-0.441-1.433c-0.479,0.459-0.963,0.785-1.412,1.267c-0.84-0.605-1.5-1.151-2.264-1.873
		c-0.162,0.281-0.574,0.943-0.568,1.275c-0.172-0.354-0.42-0.727-0.529-1.108c-0.041-0.144-0.002-0.556-0.082-0.659
		c-0.271-0.341-0.303-0.19-0.764,0.021c-0.201,0.09-2.049,0.876-2.047,1.076c-0.295-1.278-0.555-2.043-0.701-2.576
		c-2.623,2.242-2.548,2.417-2.922,1.551c-0.216-0.49-0.231-1.139-0.164-1.661c0.028-0.235,0.652-2.254,0.652-2.27
		c-0.578-0.222-1.166-0.519-1.566-1.008c-0.181-0.222-0.209-0.413-0.306-0.667c-0.058-0.155-0.522-0.792-0.468-0.926
		c-0.501,1.222,0.556,2.08,0.836,3.227c0.151,0.625,0.147,1.313-0.147,1.885c-0.236-0.356-0.473-0.712-0.71-1.07
		c-0.396,0.566-0.755,1.16-1.208,1.684c-0.282-0.722-0.179-1.939-0.29-2.753c-0.426,0.73-1.017,1.365-1.716,1.843
		C299.659,51.18,299.398,49.989,299.173,48.52z M307.857,34.688c0.715,0.743,1.363,1.568,2.094,2.291
		c-1.402-0.454-2.717,0.281-3.256,1.295c0.104-0.343,0.201-1.191-0.166-3.061c-0.205-1.065-0.68-2.016-1.113-3.006
		c0.949,1.094,1.807,2.263,2.57,3.488C307.943,35.359,307.9,35.024,307.857,34.688z M310.648,38.972
		c1.066,0.532,1.514,0.666,2.736,1.542c0.77,1.138,0.574,1.95,0.627,3.088c-0.568,1.034-1.736,1.555-2.998,1.494
		c-3.115-0.157-4.668-3.87-1.473-5.774C309.902,39.106,310.279,39,310.648,38.972z M330.637,38.003
		c-0.559-0.54-1.313-0.763-2.039-1.017c0.658-1.195,1.498-1.861,2.432-2.702c-0.328,0.533-0.58,1.114-0.738,1.718
		c0.418-0.33,0.785-0.715,1.104-1.138C330.992,35.478,330.455,37.423,330.637,38.003z M327.563,44.022
		c-2.781,2.987-7.9-0.672-4.875-4.133c1.051-0.49,2.246-1.033,3.449-1.318C328.271,39.012,329.469,41.982,327.563,44.022z
		 M314.865,58.43c-0.234-0.12-0.479-0.232-0.732-0.328c-0.068-0.077-0.145-0.143-0.186-0.183c0,0,0.012-0.013,0.346-0.396
		C314.467,57.836,314.658,58.14,314.865,58.43z M312.502,57.667c-0.354-0.059-0.707-0.103-1.072-0.135
		c0.141-0.26,0.238-0.515,0.314-0.778C311.973,57.075,312.229,57.382,312.502,57.667z M296.413,55.109
		c0.71-2.272,1.113-2.497,1.886-3.536c-0.031,0.888-0.078,0.052-0.641,2.468c0.46-0.29,0.925-0.58,1.386-0.873
		c0.054-0.034,0.021,0.813-0.011,0.901c-0.132,0.347-0.268,0.395-0.577,0.503c-0.711,0.249-1.402,0.55-2.069,0.898
		C296.4,55.354,296.407,55.229,296.413,55.109z M266.766,137.447l-0.164,0.122c-0.008-0.009-0.013-0.016-0.022-0.024
		c0.725-3.445,1.044-4.185,3.191-8.519c0.214,0.89,1.464,1.393,2.285,0.62c0.324-0.304,0.516-0.76,0.401-1.156l-0.104,0.005
		c-0.43,1.364-1.662,0.72-1.871-0.414c-0.246-1.338,0.665-2.751,1.291-3.874c-2.471,2.498-4.642,6.182-5.811,10.599
		c-0.646,0.531-1.286,1.068-1.93,1.606c-0.421-2.899,0.845-4.532,6.386-19.61c0.418-1.142,1.603-2.273,2.25-3.301
		c0.873-1.397,1.838-2.618,2.901-3.888c-0.155,1.252-0.309,2.503-0.462,3.751c2.709-2.327,4.985-5.166,6.668-8.321
		c-0.004,0.69-0.148,2.015,0.917,1.451c1.841-0.975,2.829-5.777,3.681-7.247c-0.952,1.656-2.216,3.13-3.709,4.32l0.154-3.56
		c-1.491,3.047-3.462,5.857-5.818,8.295c0.018-1.291,0.036-2.582,0.053-3.875c-1.599,2.788-3.729,5.264-6.24,7.269
		c0.672-2.05,0.831-4.199,1.228-6.335c0.321-1.712,0.646-3.425,1.021-5.124c0.609-2.797,1.403-5.53,2.406-8.211
		c0.6-1.609,1.253-3.192,1.902-4.781c0.419-1.016,0.844-2.032,1.262-3.046c0.433-1.039,0.768-2.634,1.455-3.508
		c-3.645,4.648-4.124,7.819-5.929,9.969c-0.574,0.683-1.112,1.314-1.561,2.068c3.396-11.731,7.546-22.256,17.188-31.736
		c0.086,0.173,0.151,0.296,0.202,0.399c-2.732,2.989-4.977,6.65-6.155,10.556c2.181-4.354,4.908-8.115,8.45-11.403
		c-0.531,0.757-0.592,1.638-0.703,1.989c1.459-0.353,0.06,0.272,2.833-0.99c0.659-0.305,1.314-0.623,1.964-0.962l-0.033-0.099
		c-1.284,0.212-3.631,0.716-3.671,0.728c-0.052-0.239-0.121-0.48-0.246-0.721l-0.075-0.008c3.511-3.241,5.809-4.409,7.831-5.081
		c-0.033-0.041-0.06-0.092-0.072-0.141c-1.204,0.228-2.414,0.456-3.617,0.682c1.711-0.704,1.898-0.961,4.165-1.641
		c0.037-0.042,0.07-0.084,0.107-0.127c0.611,0.073,1.125,0.015,1.729-0.128c0.177,0.591,0.575,1.092,1.143,1.319
		c0.322,0.629,0.172,0.338,0.355,0.704c0.24-0.161,1.181-0.749,2.275-1.586c0.328,1.061,0.271,0.81,0.693,2.056
		c0.047-0.026,2.117-1.238,2.26-1.327c0.117,0.84,0.803,1.658,1.416,2.277c-7.486-0.27-13.232,4.493-14.502,5.46
		c-3.228,2.452-6.561,5.509-8.41,9.184c1.812-2.579,6.261-6.547,9.297-8.814c3.502-2.448,12.178-5.737,15.885-4.315
		c3.355,1.286,3.193,4.818,3.318,7.887c0.42,10.424-2.648,21.365-3.285,23.505c0.09-0.267,0.229-0.676,0.428-1.256
		c-3.162,10.495-8.719,23.871-16.376,31.711c-0.992,0.81-2.109,1.705-3.329,2.633c0.297-0.715,0.559-1.446,0.767-2.2
		c-1.047,1.437-1.744,2.507-2.361,3.409c-4.569,3.389-10.186,7.052-15.574,9.162c0.309-0.704,0.612-1.405,0.92-2.109
		c-3.434,2.722-2.622,2.606-6.908,3.946c0.093-0.106,0.178-0.215,0.268-0.319c-0.037,0.058-0.07,0.117-0.092,0.174
		c0.563-0.838,2.01-2.418,2.57-4.999C272.025,132.001,269.804,135.13,266.766,137.447z M280.997,134.095
		c-0.341,0.392-0.69,0.8-1.066,1.234c-0.21-0.15-0.444-0.299-0.68-0.441C279.844,134.625,279.889,134.612,280.997,134.095z
		 M269.215,138.146c0.643-0.007,1.309-0.122,1.979-0.295c-1.894,4.574-3.599,6.695-4.475,8.026
		C266.718,145.833,266.773,143.554,269.215,138.146z M258.653,160.798c3.91-8.456,3.432-10.232,14.951-21.056
		c0.041-0.037,4.88-4.484,4.921-4.51c0.221,0.303,0.545,0.555,0.9,0.691c-1.748,2.029-3.496,4.064-5.235,6.098
		c-0.667-0.175-1.56-0.655-1.99-0.857c0.103,0.679,0.692,1.288,1.403,1.542c-3.654,4.28-0.647,0.812-3.851,4.184
		c-0.59,0.03-1.291-0.271-1.815-0.553c-0.122,0.143-0.283,0.217-0.44,0.227c0.35,0.589,0.945,0.964,1.559,1.089
		c-1.199,1.326-2.339,2.724-3.379,4.09c-0.042-0.02-0.892-0.588-1.809-0.809c0.025,0.581,0.544,1.233,1.364,1.397
		c-1.138,1.535-2.127,3.016-2.89,4.308c0.04-0.042,13.026-14.36,13.048-14.401c2.882-3.186,5.699-6.354,8.414-9.509
		c0.439-0.227,0.881-0.462,1.32-0.703c-3.65,3.954-1.437,3.079-10.883,14.473c-0.107-0.039-0.92-0.486-1.614-0.512
		c0.129,0.483,0.518,0.946,1.069,1.17C273.623,147.246,262.37,159.827,258.653,160.798z"/>
</g>
<path fill="#7CAEE1" d="M316.656,122.783c3.807-3.314,6.609-9.834,7.154-14.792C323.244,109.268,320.555,116.332,316.656,122.783"/>
<path fill="#7CAEE1" d="M323.02,112.986c4.805-5.51,7.277-14.233,6.186-21.344C329.064,93.531,326.934,105.621,323.02,112.986"/>
<path fill="#7CAEE1" d="M318.004,114.885c-0.365,0.231-0.67,0.382-0.977,0.5c-0.303,0.118-0.6,0.202-0.9,0.266
	c-0.305,0.063-0.611,0.106-0.936,0.118c-0.33,0.013-0.668-0.003-1.096-0.071c0.158,0.408,0.527,0.707,0.934,0.867
	c0.414,0.161,0.875,0.193,1.307,0.103c0.434-0.089,0.846-0.302,1.16-0.614C317.807,115.743,318.025,115.322,318.004,114.885"/>
<path fill="#7CAEE1" d="M318.057,110.511c0.174,0.083,0.365,0.135,0.572,0.149c0.209,0.012,0.43-0.006,0.699-0.118
	c-0.082-0.278-0.211-0.463-0.35-0.619c-0.141-0.152-0.301-0.266-0.475-0.349c-0.176-0.083-0.365-0.134-0.572-0.147
	c-0.209-0.012-0.432,0.007-0.699,0.117c0.082,0.276,0.209,0.461,0.35,0.617C317.723,110.312,317.883,110.429,318.057,110.511"/>
<path fill="#7CAEE1" d="M321.227,106.26c0.383,0.167,0.82,0.2,1.229,0.116c0.408-0.085,0.795-0.293,1.08-0.599
	c0.283-0.305,0.465-0.723,0.398-1.131c-0.336,0.232-0.611,0.368-0.885,0.474c-0.271,0.107-0.537,0.182-0.807,0.239
	c-0.27,0.057-0.543,0.096-0.836,0.109c-0.295,0.013-0.602,0-1.002-0.08C320.51,105.787,320.844,106.097,321.227,106.26"/>
<path fill="#7CAEE1" d="M317.98,123.968c-0.064,0.338,0.129,0.677,0.416,0.876c0.283,0.202,0.678,0.285,1.055,0.176
	c0.379-0.107,0.67-0.386,0.805-0.709c0.135-0.321,0.121-0.712-0.115-0.965C319.627,124.014,318.791,124.27,317.98,123.968"/>
<path fill="#7CAEE1" d="M322.943,101.336c0.541-0.005,1.045-0.254,1.379-0.622c0.336-0.365,0.521-0.876,0.404-1.333
	c-0.309,0.345-0.609,0.548-0.914,0.696c-0.303,0.144-0.604,0.217-0.887,0.222c-0.279,0.005-0.584-0.057-0.891-0.193
	c-0.311-0.138-0.617-0.332-0.936-0.666c-0.102,0.459,0.102,0.963,0.445,1.317C321.893,101.114,322.404,101.346,322.943,101.336"/>
<path fill="#7CAEE1" d="M325.24,95.679c0.174,0.265,0.5,0.459,0.871,0.453c0.369-0.004,0.691-0.206,0.859-0.475
	c0.168-0.265,0.199-0.631-0.012-0.866c-0.23,0.198-0.412,0.244-0.557,0.279c-0.143,0.03-0.24,0.022-0.305,0.025
	c-0.066,0.001-0.164,0.011-0.311-0.017c-0.143-0.031-0.324-0.072-0.561-0.264C325.025,95.054,325.064,95.419,325.24,95.679"/>
<path fill="#7CAEE1" d="M330.186,98.68c-0.18,0.324-0.057,0.76,0.209,1.04c0.264,0.285,0.701,0.46,1.152,0.374
	c0.449-0.086,0.789-0.414,0.924-0.779c0.145-0.359,0.094-0.809-0.195-1.04C331.881,99.161,330.898,99.374,330.186,98.68"/>
<path fill="#7CAEE1" d="M327.943,107.073c-0.129,0.046-0.168,0.26-0.545,0.378c-0.141,0.677,1.037,0.933,1.342,0.175
	c0.08-0.197,0.064-0.46-0.139-0.617C328.236,107.163,328.068,107.023,327.943,107.073"/>
<path fill="#7CAEE1" d="M323.172,114.143c0.055,0.389,0.357,0.709,0.723,0.878c0.369,0.168,0.822,0.194,1.232,0.039
	c0.889-0.334,1.262-1.371,0.855-1.984C325.295,114.065,324.338,114.43,323.172,114.143"/>
<path fill="#7CAEE1" d="M309.998,120.126c0.545,0.077,1.09-0.091,1.486-0.407c0.396-0.312,0.668-0.791,0.631-1.271
	c-0.363,0.298-0.701,0.459-1.035,0.563c-0.332,0.099-0.65,0.126-0.941,0.088c-0.291-0.04-0.59-0.153-0.883-0.339
	c-0.295-0.188-0.574-0.436-0.842-0.822c-0.164,0.451-0.033,0.987,0.264,1.394C308.975,119.743,309.453,120.052,309.998,120.126"/>
<path fill="#FFF8E9" d="M103.473,115.209c-6.264,0-11.344,5.079-11.344,11.345c0,6.266,5.08,11.345,11.344,11.345
	c6.268,0,11.347-5.079,11.347-11.345C114.82,120.289,109.741,115.209,103.473,115.209z"/>
<polygon fill="#FFF8E9" points="61.389,56.432 51.344,34.783 50.049,58.624 34.88,42.291 40.522,63.275 19.567,53.363 
	34.007,73.564 11.251,67.654 24.882,81.428 2.937,86.294 2.937,86.295 24.313,92.699 5.52,102.033 27.414,104.148 10.797,121.656 
	35.736,113.854 24.42,133.321 43.331,120.837 38.137,144.206 51.653,130.542 55.641,152.119 62.569,131.86 72.871,149.189 
	74.35,130.383 91.007,145.313 86.072,122.832 105.727,132.587 93.897,114.81 115.77,119.294 112.267,115.627 101.255,104.095 
	120.743,99.859 120.744,99.854 100.691,93.479 119.154,82.522 98.723,81.376 113.073,65.176 93.481,70.195 102.778,49.958 
	85.169,62.6 87.929,39.726 72.689,56.743 69.789,34.9 69.789,34.9 "/>
<image width="100" height="105" xlink:href="696F3EF.png"  transform="matrix(0.48 0 0 0.48 39.3765 65.8184)">
</image>
<rect x="89.706" y="70.422" transform="matrix(-0.992 0.1263 -0.1263 -0.992 376.4703 161.6908)" fill="#FFF8E9" width="186.804" height="44.723"/>
<polygon fill="#003D7C" points="107.738,93.527 106.918,110.568 104.185,110.917 105.011,93.877 "/>
<polygon fill="#003D7C" points="126.286,108.099 123.552,108.448 115.949,96.775 115.332,109.496 112.597,109.846 113.424,92.785 
	116.151,92.436 123.774,104.082 124.385,91.388 127.112,91.039 "/>
<path fill="#003D7C" d="M138.022,106.774c-1.021,0.131-1.96,0.084-2.814-0.141c-0.857-0.223-1.564-0.62-2.123-1.189
	c-0.561-0.572-0.896-1.289-1.007-2.149c-0.014-0.111-0.024-0.313-0.027-0.604l2.707-0.35c0.03,0.744,0.324,1.329,0.88,1.753
	c0.559,0.422,1.299,0.575,2.223,0.457c0.994-0.13,1.743-0.432,2.25-0.907c0.505-0.474,0.708-1.097,0.611-1.867
	c-0.059-0.46-0.248-0.836-0.571-1.128c-0.319-0.296-0.703-0.528-1.155-0.699c-0.448-0.17-1.068-0.358-1.861-0.564
	c-1.044-0.296-1.884-0.571-2.518-0.826c-0.637-0.259-1.203-0.659-1.7-1.196s-0.804-1.253-0.92-2.149
	c-0.126-0.989,0.02-1.888,0.437-2.693c0.42-0.81,1.054-1.473,1.901-1.989c0.849-0.513,1.843-0.846,2.982-0.994
	c1.131-0.142,2.132-0.077,3.002,0.195c0.873,0.269,1.565,0.717,2.076,1.343c0.513,0.628,0.806,1.397,0.873,2.311l-2.882,0.369
	c-0.018-0.661-0.287-1.182-0.806-1.558c-0.52-0.38-1.22-0.514-2.102-0.403c-0.927,0.118-1.639,0.421-2.136,0.914
	c-0.497,0.488-0.698,1.093-0.604,1.813c0.057,0.448,0.245,0.818,0.564,1.108c0.322,0.292,0.713,0.527,1.175,0.705
	c0.46,0.18,1.078,0.382,1.854,0.605c1.048,0.327,1.894,0.628,2.539,0.9c0.645,0.274,1.219,0.683,1.726,1.229
	c0.511,0.542,0.821,1.254,0.934,2.136c0.121,0.923-0.031,1.78-0.45,2.572c-0.417,0.793-1.065,1.454-1.941,1.982
	C140.26,106.284,139.222,106.623,138.022,106.774"/>
<path fill="#003D7C" d="M147.916,96.842c0.081-1.669,0.527-3.212,1.343-4.628c0.82-1.419,1.896-2.582,3.231-3.493
	c1.338-0.913,2.784-1.467,4.339-1.665c1.773-0.224,3.335,0.02,4.688,0.732c1.352,0.712,2.294,1.847,2.828,3.405l-3.284,0.417
	c-0.409-0.788-0.985-1.351-1.727-1.686c-0.744-0.339-1.617-0.447-2.619-0.323c-1.107,0.145-2.102,0.524-2.989,1.142
	c-0.887,0.618-1.597,1.424-2.129,2.418c-0.529,0.991-0.823,2.096-0.88,3.318c-0.014,0.543,0.003,0.998,0.054,1.363
	c0.183,1.443,0.76,2.533,1.732,3.271c0.971,0.736,2.177,1.012,3.614,0.827c1.008-0.129,1.908-0.46,2.7-0.994
	c0.796-0.533,1.427-1.25,1.894-2.149l3.285-0.424c-0.709,1.717-1.774,3.103-3.197,4.165c-1.424,1.057-3.023,1.699-4.796,1.928
	c-1.375,0.174-2.643,0.044-3.802-0.39c-1.16-0.439-2.109-1.139-2.848-2.103c-0.738-0.962-1.195-2.124-1.37-3.485
	C147.919,97.977,147.898,97.429,147.916,96.842"/>
<path fill="#003D7C" d="M175.601,84.888c1.679-0.215,2.997,0,3.956,0.644c0.957,0.642,1.513,1.559,1.666,2.754
	c0.027,0.211,0.035,0.529,0.027,0.954c-0.059,1.093-0.429,2.139-1.109,3.136c-0.676,0.994-1.672,1.739-2.989,2.23l3.782,6.536
	l-3.258,0.41l-3.486-6.328l-2.109,0.269l-0.329,6.817l-2.733,0.349l0.826-17.04L175.601,84.888z M178.442,89.596
	c0.017-0.25,0.01-0.487-0.02-0.712c-0.086-0.685-0.373-1.185-0.86-1.505c-0.483-0.322-1.175-0.425-2.075-0.309l-3.016,0.383
	l-0.282,5.837l3.022-0.383c1.021-0.129,1.804-0.49,2.351-1.082C178.113,91.235,178.405,90.492,178.442,89.596"/>
<polygon fill="#003D7C" points="189.805,83.075 188.986,100.115 186.252,100.465 187.078,83.424 "/>
<path fill="#003D7C" d="M202.375,96.048c1.009-0.129,1.908-0.46,2.7-0.994c0.796-0.532,1.427-1.25,1.895-2.15l3.284-0.422
	c-0.645,1.576-1.597,2.879-2.854,3.908c-1.254,1.032-2.683,1.713-4.285,2.049l-0.061,1.054c0.819-0.102,1.498-0.011,2.036,0.276
	c0.539,0.285,0.853,0.749,0.933,1.39c0.121,0.941-0.131,1.737-0.752,2.391c-0.623,0.659-1.422,1.05-2.398,1.176l-3.164,0.403
	l0.088-1.76l2.619-0.329c0.512-0.067,0.877-0.198,1.103-0.389c0.228-0.194,0.315-0.504,0.262-0.934
	c-0.032-0.26-0.153-0.422-0.363-0.484c-0.212-0.063-0.517-0.067-0.92-0.013l-1.316,0.168l0.135-2.748
	c-1.229,0.028-2.352-0.197-3.372-0.678c-1.021-0.478-1.854-1.179-2.499-2.102c-0.641-0.927-1.041-2.015-1.202-3.265
	c-0.066-0.54-0.091-1.089-0.066-1.645c0.08-1.669,0.526-3.212,1.343-4.628c0.819-1.419,1.896-2.583,3.23-3.492
	c1.338-0.914,2.784-1.468,4.339-1.666c1.773-0.223,3.335,0.02,4.688,0.732c1.352,0.712,2.294,1.847,2.828,3.405l-3.285,0.417
	c-0.408-0.788-0.984-1.35-1.726-1.686c-0.744-0.339-1.617-0.447-2.619-0.322c-1.107,0.144-2.104,0.524-2.989,1.141
	c-0.887,0.618-1.597,1.424-2.129,2.418c-0.529,0.991-0.823,2.096-0.88,3.318c-0.015,0.543,0.003,0.998,0.054,1.364
	c0.183,1.442,0.76,2.532,1.732,3.271C199.733,95.958,200.939,96.233,202.375,96.048"/>
<path fill="#003D7C" d="M222.968,95.956c-1.407,0.179-2.684,0.044-3.829-0.41c-1.142-0.456-2.079-1.182-2.807-2.176
	c-0.727-0.994-1.176-2.171-1.35-3.533c-0.242-1.897-0.034-3.664,0.623-5.299c0.662-1.639,1.693-2.986,3.091-4.044
	c1.399-1.056,3.038-1.702,4.909-1.941c1.42-0.178,2.702-0.04,3.849,0.416c1.146,0.454,2.083,1.174,2.808,2.163
	c0.729,0.986,1.183,2.16,1.357,3.52c0.242,1.899,0.03,3.672-0.632,5.319c-0.658,1.644-1.689,2.993-3.089,4.044
	C226.501,95.067,224.858,95.713,222.968,95.956 M223.042,93.443c1.306-0.165,2.426-0.648,3.358-1.451
	c0.93-0.806,1.606-1.807,2.027-3.002c0.425-1.199,0.553-2.462,0.383-3.788c-0.185-1.455-0.741-2.55-1.672-3.285
	c-0.927-0.739-2.128-1.014-3.6-0.826c-1.314,0.171-2.436,0.651-3.365,1.444c-0.927,0.793-1.599,1.785-2.015,2.975
	c-0.417,1.193-0.541,2.457-0.37,3.795c0.183,1.456,0.739,2.556,1.666,3.298C220.385,93.348,221.582,93.628,223.042,93.443
	 M219.785,77.652c0.161-0.957,0.494-1.709,1.001-2.257c0.505-0.545,1.116-0.863,1.833-0.953c0.304-0.041,0.558-0.027,0.759,0.04
	c0.205,0.064,0.481,0.179,0.827,0.349c0.223,0.131,0.418,0.227,0.584,0.289c0.164,0.059,0.351,0.074,0.557,0.047
	c0.272-0.03,0.508-0.144,0.706-0.343c0.201-0.196,0.33-0.47,0.389-0.819l1.532-0.195c-0.172,0.964-0.511,1.718-1.021,2.264
	c-0.507,0.547-1.119,0.865-1.834,0.953c-0.307,0.041-0.568,0.025-0.786-0.046c-0.22-0.071-0.483-0.19-0.792-0.357
	c-0.266-0.151-0.477-0.251-0.632-0.302c-0.153-0.054-0.322-0.069-0.511-0.047c-0.278,0.037-0.509,0.158-0.691,0.363
	c-0.186,0.202-0.313,0.475-0.383,0.819L219.785,77.652z"/>
<polygon fill="#003D7C" points="239.599,78.883 239.358,84.048 245.108,83.316 245.019,85.479 239.263,86.211 239.001,91.584 
	245.476,90.758 245.355,92.934 236.154,94.11 236.98,77.049 246.188,75.874 246.068,78.057 "/>
<path fill="#003D7C" d="M256.857,91.64c-1.021,0.131-1.96,0.084-2.814-0.141c-0.856-0.223-1.563-0.62-2.123-1.189
	c-0.561-0.572-0.896-1.29-1.007-2.149c-0.014-0.111-0.023-0.313-0.026-0.604l2.707-0.35c0.029,0.744,0.323,1.328,0.88,1.753
	c0.559,0.422,1.299,0.575,2.223,0.457c0.994-0.13,1.743-0.432,2.25-0.907c0.505-0.474,0.708-1.097,0.611-1.867
	c-0.06-0.46-0.248-0.836-0.571-1.128c-0.319-0.296-0.703-0.528-1.155-0.699c-0.447-0.17-1.067-0.358-1.86-0.564
	c-1.044-0.296-1.885-0.571-2.519-0.826c-0.637-0.259-1.203-0.659-1.7-1.196s-0.804-1.253-0.92-2.15
	c-0.126-0.988,0.021-1.887,0.438-2.693c0.42-0.809,1.054-1.472,1.9-1.988c0.85-0.514,1.844-0.846,2.982-0.994
	c1.132-0.142,2.132-0.077,3.002,0.195c0.873,0.269,1.565,0.717,2.076,1.343c0.513,0.628,0.806,1.397,0.873,2.311l-2.882,0.369
	c-0.019-0.661-0.287-1.182-0.807-1.558c-0.52-0.38-1.221-0.514-2.102-0.403c-0.927,0.118-1.639,0.421-2.136,0.914
	c-0.497,0.488-0.698,1.092-0.604,1.813c0.057,0.448,0.245,0.817,0.564,1.108c0.321,0.292,0.713,0.527,1.175,0.705
	c0.46,0.18,1.078,0.381,1.854,0.605c1.048,0.327,1.895,0.628,2.539,0.9c0.646,0.274,1.22,0.683,1.727,1.229
	c0.511,0.542,0.82,1.254,0.934,2.136c0.121,0.923-0.031,1.78-0.45,2.572c-0.417,0.793-1.064,1.454-1.94,1.982
	C259.095,91.15,258.056,91.489,256.857,91.64"/>
<path fill="#D20A11" d="M60.153,176.581c-3.576,0-6.844-2.158-8.191-5.524c-1.53-3.823-0.254-8.097,3.176-10.634l0.162-0.117
	c1.07-0.752,1.579-1.223,2.13-2.734l6.672-21.96c0.027-0.087,0.052-0.169,0.075-0.246c-1.39-2.167-1.794-4.884-1.008-7.422
	c1.031-3.328,3.868-5.792,7.295-6.379l0.097-0.321l0.317,0.26c0.001,0,0.002,0,0.003,0l7.023-0.885
	c8.545-1.078,14.694,5.359,16.792,11.793l0.244,0.746l0.023,0.19c0.262,0.91,0.871,2.976,1.608,5.467l0.083-5.362
	c-2.668-2.195-3.852-5.653-3.03-9.024c0.872-3.575,3.92-6.285,7.583-6.743l18.817-2.369c4.191-0.528,8.371,0.388,11.847,2.54
	c1.316-2.637,3.903-4.525,6.905-4.901l20.339-2.56c2.401-0.302,5.37-0.37,8.219,0.384c1.288-1.069,2.876-1.783,4.601-1.999
	l17.88-2.251c5.601-0.705,11.056,0.782,15.082,4.088c1.2-3.897,4.323-6.528,8.584-7.068l31.576-3.974
	c2.101-0.262,3.812,0.067,5.152,0.615c1.173-0.892,2.561-1.509,4.063-1.767l0.096-0.316l0.313,0.256l7.031-0.884
	c4.428-0.557,8.706,0.923,12.053,4.167c2.207,2.141,3.505,4.527,4.23,6.268c2.293-7.727,9.316-13.393,19.19-14.898l0.326-0.044
	c10.761-1.593,19.787,2.215,23.007,9.721l0.039,0.092c1.916,4.619,1.094,9.555-2.117,13.133c1.967,2.408,3.15,5.088,3.527,7.997
	c1.371,10.156-7.709,20.315-19.859,22.2l-0.308,0.042c-4.449,0.689-7.646-0.009-9.843-0.557c-0.021,0.016-0.045,0.032-0.065,0.047
	c-1.379,0.972-4.229,2.974-7.731,2.515c-0.686,0.275-1.412,0.466-2.166,0.562l-16.094,2.025c-1.815,0.232-3.602-0.096-5.154-0.891
	c-1.313,1.147-2.955,1.91-4.747,2.138l-10.936,1.377c-1.131,0.142-2.249,0.063-3.302-0.206c-1.037,0.536-2.198,0.898-3.444,1.054
	l-15.197,1.914c-3.464,0.438-6.636-0.864-8.564-3.388c-1.274,2.925-4.051,4.976-7.507,5.411l-14.035,1.768
	c-0.853,0.107-1.692,0.095-2.503-0.029c-0.804,0.326-1.664,0.553-2.567,0.667l-14.566,1.834c-0.998,0.125-1.986,0.079-2.927-0.121
	c-0.984,0.444-2.066,0.75-3.226,0.896l-27.002,3.4c-2.205,0.276-4.353-0.285-6.079-1.486c-2.73,1.779-5.911,2.994-9.328,3.425
	l-22.166,2.791c-0.77,0.098-1.533,0.092-2.275-0.007c-0.696,0.279-1.433,0.475-2.199,0.57l-16.08,2.024
	c-1.821,0.228-3.605-0.099-5.154-0.892c-1.319,1.151-2.968,1.914-4.769,2.14l-10.914,1.375
	C60.89,176.558,60.519,176.581,60.153,176.581 M290.121,145.167c0.004,0.001,0.01,0.002,0.014,0.003L290.121,145.167z
	 M206.156,136.722c1.368,1.879,2.604,3.471,4.148,4.282l0.179,0.096c1.2,0.669,2.208,1.562,2.987,2.602
	c0.442-1.032,1.077-2.001,1.891-2.855c0.58-1.496,1.346-5.878,1.448-12.018l0.017-1.094c-1.939,1.117-4.219,1.542-6.381,1.159
	C209.626,131.738,208.15,134.411,206.156,136.722 M215.234,141.135L215.234,141.135L215.234,141.135z M216.072,140.17
	c-0.002,0.002-0.005,0.003-0.007,0.005L216.072,140.17z M97.625,134.156L97.625,134.156z M96.644,132.406L96.644,132.406z
	 M243.241,123.29l-0.069,4.525c-0.001,0.087-0.003,0.174-0.005,0.262l1.279-4.209C244.034,123.705,243.632,123.512,243.241,123.29
	 M151.57,127.984L151.57,127.984"/>
<path fill="#FFF8E9" d="M96.861,162.263c-2.989-1.536-3.189-3.131-3.959-5.753c-0.11-0.28-6.354-21.263-6.391-21.552
	c-0.845-2.614-3.582-6.831-8.07-6.265l-7.023,0.883c-0.796,0.101-1.338,1.052-0.757,1.567c1.829,1.683,1.614,4.062,0.72,6.896
	l-6.704,22.099c-1.246,3.539-3.01,5.306-5.171,6.826c-0.942,0.707-0.461,1.603,0.264,1.512l10.931-1.375
	c0.724-0.092,1.04-1.088,0.46-1.604c-4.293-3.725-3.736-7.473-3.121-9.608l12.595-1.585c0.62,4.334,0.588,8.163-0.715,10.092
	c-0.425,0.715-0.025,1.546,0.699,1.455l16.071-2.023C97.413,163.737,97.803,162.731,96.861,162.263 M68.725,153.742l5.613-18.502
	c1.476,1.21,4.569,9.426,5.97,17.044L68.725,153.742z"/>
<path fill="#FFF8E9" d="M126.201,140.625c2.884-2.203,4.91-5.399,5.005-8.72c0.051-5.449-5.202-9.2-10.632-8.516l-18.822,2.369
	c-0.724,0.092-1.049,1.014-0.324,1.513c2.48,1.599,2.908,3.237,2.873,5.889l-0.324,21.955c-0.025,2.725-0.475,4.399-3.063,6.637
	c-0.722,0.679-0.46,1.603,0.264,1.512l22.153-2.79c6.298-0.792,11.462-5.929,11.511-11.377
	C134.919,144.453,131.252,141.018,126.201,140.625 M116.344,159.294l-1.377,0.173c-0.556-5.592-0.705-10.868-0.71-15.574
	l2.317-0.293c4.344-0.545,7.966,2.528,7.916,6.799C124.448,154.744,120.686,158.748,116.344,159.294 M121.724,133.099
	c-0.052,4.272-2.871,8.156-7.143,8.695l-0.289,0.035c0.193-7.23,0.73-12.888,1.108-15.73
	C119.274,125.906,121.793,128.972,121.724,133.099"/>
<path fill="#FFF8E9" d="M166.405,146.299c-1.933,2.744-3.948,7.19-8.436,7.754l-5.431,0.684c-0.555-5.592-0.705-10.868-0.71-15.574
	l1.449-0.182c4.489-0.566,4.101,1.028,5.939,3.37c0.598,0.66,1.512,0.324,1.539-0.635l0.136-9.43
	c0.027-0.96-0.942-1.059-1.493-0.179c-1.935,2.744-1.599,4.245-6.087,4.811l-1.448,0.181c0.194-7.231,0.731-12.887,1.109-15.731
	c2.325-0.218,3.674-0.02,5.37,2.929c2.619,4.45,9.477,3.439,9.517-2.081c0.124-3.692-4.428-4.223-8.192-3.749l-20.344,2.561
	c-0.723,0.092-1.049,1.014-0.324,1.513c2.481,1.598,2.909,3.237,2.873,5.888l-0.324,21.955c-0.025,2.726-0.475,4.4-3.062,6.638
	c-0.722,0.679-0.461,1.602,0.263,1.511l27.004-3.4c1.376-0.173,2.027-0.843,2.061-2.319l0.075-6.408
	C167.936,145.592,166.966,145.493,166.405,146.299"/>
<path fill="#FFF8E9" d="M206.065,148.221c-6.22-3.263-7.973-10.176-12.473-12.624c5.121-1.968,8.873-6.633,8.986-11.575
	c0.049-6.036-5.411-10.276-12.218-9.418l-17.881,2.25c-0.724,0.092-1.05,1.014-0.324,1.513c2.48,1.598,2.908,3.237,2.873,5.889
	l-0.324,21.955c-0.026,2.725-0.476,4.399-3.063,6.637c-0.722,0.679-0.46,1.603,0.263,1.512l14.552-1.832
	c1.521-0.192,1.511-1.441,0.786-1.938c-2.082-1.357-2.306-7.8-2.292-12.95c0.625-0.299,1.33-0.534,1.837-0.598
	c3.909-0.491,4.609,3.906,5.291,6.982c0.7,2.634,0.9,4.225-1.033,6.381c-0.58,0.662-0.316,1.584,0.479,1.484l14.044-1.768
	C207.089,149.93,206.934,148.699,206.065,148.221 M192.225,125.327c-0.104,4.424-3.259,8.572-7.241,9.662l0.019-1.031
	c0.077-4.643,0.069-12.88,1.995-16.283C190.047,118.54,192.259,121.498,192.225,125.327"/>
<path fill="#FFF8E9" d="M245.598,107.649l-31.565,3.975c-1.375,0.172-1.881,0.824-1.998,2.236c-0.26,2.018-1.09,5.946-1.098,6.463
	c-0.044,0.815,1.131,0.813,1.774,0.071c2.458-2.663,7.442-7.482,10.337-7.847l1.665-0.21l-0.257,16.652
	c-0.087,5.16-0.765,14.953-3.551,17.363c-0.796,0.689-0.786,1.938,0.735,1.746l15.201-1.914c1.594-0.202,1.512-1.441,0.858-1.946
	c-2.715-1.718-3.196-11.365-3.108-16.523l0.258-16.654l1.663-0.208c2.896-0.366,7.76,3.214,10.078,5.276
	c0.732,0.569,1.801,0.287,1.846-0.527c0.009-0.516-0.755-4.244-0.929-6.208C247.335,108.019,246.973,107.476,245.598,107.649"/>
<path fill="#FFF8E9" d="M280.667,139.123c-2.989-1.537-3.189-3.13-3.959-5.753c-0.11-0.28-6.354-21.263-6.392-21.552
	c-0.845-2.614-3.582-6.831-8.069-6.265l-7.023,0.883c-0.796,0.101-1.338,1.052-0.757,1.567c1.829,1.683,1.614,4.062,0.72,6.896
	l-6.704,22.098c-1.246,3.54-3.01,5.306-5.171,6.828c-0.941,0.707-0.461,1.602,0.264,1.511l10.932-1.375
	c0.724-0.093,1.04-1.088,0.46-1.604c-4.293-3.724-3.736-7.472-3.121-9.608l12.595-1.585c0.62,4.334,0.588,8.162-0.715,10.091
	c-0.425,0.716-0.025,1.547,0.698,1.456l16.072-2.023C281.219,140.597,281.609,139.591,280.667,139.123 M252.531,130.603
	l5.613-18.503c1.477,1.211,4.569,9.427,5.97,17.045L252.531,130.603z"/>
<path fill="#FFF8E9" d="M304.412,115.689c-4.6-2.657-9.833-5.086-9.022-9.748c0.522-3.449,6.187-4.604,5.711,0.973
	c-0.778,8.995,14.558,6.402,11.494-1.006c-1.979-4.606-8.739-5.74-14.439-4.875l-0.219,0.027c-8.08,1.237-13.641,6.13-13.064,13.631
	c0.752,11.232,20.281,10.979,18.081,18.611c-1.335,4.58-8.305,4.721-16.088-6.285c-1.269-1.9-2.373-1.319-2.406,0.743l-0.19,11.35
	c-0.034,3.241,3.88-2.474,6.895-1.898c2.635,0.479,4.835,1.599,9.016,0.926l0.216-0.029c7.936-1.219,13.833-7.549,13.059-13.116
	C312.904,120.649,308.541,118.11,304.412,115.689"/>
<polygon fill="#D20A11" points="277.091,2.447 229.881,25.421 219.821,38.797 277.087,2.468 "/>
<polygon fill="#FFF8E9" points="277.102,2.387 200.671,4.852 220.962,18.714 277.096,2.419 "/>
<polygon fill="#003D7C" points="277.096,2.419 220.962,18.714 219.821,38.797 229.881,25.421 277.091,2.447 "/>
<polygon fill="#FFF8E9" points="255.961,49.222 277.022,2.824 277.091,2.447 229.881,25.421 "/>
<g>
	<path fill="#FFF8E9" d="M107.104,47.536c0.56-0.388,1.126-0.771,1.701-1.149l-0.567-0.863c-0.583,0.383-1.155,0.771-1.721,1.164
		L107.104,47.536z"/>
	<path fill="#FFF8E9" d="M100.556,52.498c0.523-0.429,1.057-0.858,1.602-1.288l-0.639-0.811c-0.551,0.435-1.089,0.868-1.616,1.299
		L100.556,52.498z"/>
	<path fill="#FFF8E9" d="M103.782,49.95c0.541-0.409,1.09-0.819,1.649-1.225l-0.608-0.835c-0.564,0.411-1.12,0.824-1.666,1.238
		L103.782,49.95z"/>
	<path fill="#FFF8E9" d="M97.411,55.15c0.507-0.439,1.03-0.886,1.564-1.337l-0.665-0.79c-0.539,0.455-1.063,0.905-1.574,1.349
		L97.411,55.15z"/>
	<path fill="#FFF8E9" d="M94.327,57.881c0.493-0.443,1.006-0.903,1.536-1.372l-0.683-0.774c-0.533,0.472-1.048,0.934-1.543,1.378
		L94.327,57.881z"/>
	<path fill="#FFF8E9" d="M114.075,43.222c0.598-0.324,1.204-0.64,1.816-0.947l-0.462-0.922c-0.622,0.311-1.238,0.631-1.846,0.961
		L114.075,43.222z"/>
	<path fill="#FFF8E9" d="M208.365,51.104l0.663,0.791c0.554-0.465,1.075-0.931,1.566-1.391l-0.709-0.752
		C209.411,50.2,208.901,50.652,208.365,51.104z"/>
	<path fill="#FFF8E9" d="M117.738,41.393c0.618-0.284,1.244-0.556,1.875-0.814l-0.393-0.955c-0.643,0.265-1.281,0.542-1.912,0.829
		L117.738,41.393z"/>
	<path fill="#FFF8E9" d="M110.532,45.282c0.578-0.359,1.164-0.712,1.757-1.056l-0.519-0.893c-0.601,0.351-1.196,0.708-1.782,1.071
		L110.532,45.282z"/>
	<path fill="#FFF8E9" d="M199.784,56.514c-0.618,0.272-1.246,0.526-1.885,0.756l0.352,0.97c0.662-0.238,1.312-0.5,1.95-0.782
		L199.784,56.514z"/>
	<path fill="#FFF8E9" d="M214.226,44.142c-0.068,0.28-0.224,0.623-0.446,1.016l0.895,0.512c0.112-0.194,0.196-0.372,0.277-0.547
		l0.185-0.76L214.226,44.142z"/>
	<path fill="#FFF8E9" d="M91.261,60.648c0.483-0.433,0.995-0.896,1.534-1.383l-0.691-0.766c-0.539,0.485-1.05,0.947-1.534,1.38
		L91.261,60.648z"/>
	<path fill="#FFF8E9" d="M206.77,52.372c-0.531,0.401-1.086,0.796-1.658,1.182l0.575,0.856c0.588-0.396,1.157-0.803,1.704-1.214
		L206.77,52.372z"/>
	<path fill="#FFF8E9" d="M203.392,54.644c-0.578,0.344-1.171,0.674-1.778,0.99l0.477,0.917c0.625-0.324,1.235-0.667,1.829-1.021
		L203.392,54.644z"/>
	<path fill="#FFF8E9" d="M182.107,57.135l-0.345,0.974c0.659,0.232,1.322,0.445,1.995,0.64l0.286-0.992
		C183.391,57.568,182.745,57.36,182.107,57.135z"/>
	<path fill="#FFF8E9" d="M187.992,58.6c-0.598-0.068-1.197-0.167-1.795-0.296c-0.062-0.013-0.122-0.027-0.185-0.04l-0.225,1.006
		c0.063,0.015,0.126,0.028,0.19,0.042c0.633,0.139,1.266,0.241,1.899,0.314L187.992,58.6z"/>
	<path fill="#FFF8E9" d="M189.998,58.719l-0.007,1.033c0.709,0.003,1.414-0.029,2.113-0.096l-0.097-1.028
		C191.34,58.692,190.67,58.722,189.998,58.719z"/>
	<path fill="#FFF8E9" d="M195.971,57.886c-0.648,0.18-1.304,0.334-1.968,0.458l0.192,1.014c0.691-0.128,1.375-0.29,2.052-0.478
		L195.971,57.886z"/>
	<path fill="#FFF8E9" d="M125.41,38.608c0.656-0.175,1.316-0.334,1.983-0.479l-0.218-1.009c-0.682,0.148-1.359,0.31-2.031,0.49
		L125.41,38.608z"/>
	<path fill="#FFF8E9" d="M172.388,53.587l0.527-0.886c-0.588-0.349-1.172-0.707-1.753-1.07l-0.546,0.876
		C171.205,52.874,171.795,53.235,172.388,53.587z"/>
	<path fill="#FFF8E9" d="M168.866,51.394l0.561-0.866c-0.576-0.373-1.148-0.751-1.721-1.13l-0.571,0.861
		C167.711,50.64,168.287,51.02,168.866,51.394z"/>
	<path fill="#FFF8E9" d="M121.518,39.838c0.64-0.233,1.285-0.453,1.935-0.658l-0.313-0.984c-0.664,0.21-1.323,0.435-1.974,0.672
		L121.518,39.838z"/>
	<path fill="#FFF8E9" d="M165.417,49.111l0.576-0.858c-0.573-0.383-1.144-0.768-1.713-1.152l-0.576,0.858
		C164.272,48.342,164.843,48.726,165.417,49.111z"/>
	<path fill="#FFF8E9" d="M179.811,57.364l0.392-0.956c-0.629-0.257-1.252-0.53-1.87-0.818l-0.435,0.936
		C178.528,56.82,179.167,57.1,179.811,57.364z"/>
	<path fill="#FFF8E9" d="M213.458,47.43l-0.811-0.64c-0.383,0.484-0.825,0.996-1.324,1.526l0.754,0.706
		C212.595,48.469,213.057,47.935,213.458,47.43z"/>
	<path fill="#FFF8E9" d="M161.989,46.812l0.57-0.86c-0.575-0.383-1.151-0.762-1.729-1.136l-0.563,0.864
		C160.842,46.053,161.417,46.431,161.989,46.812z"/>
	<path fill="#FFF8E9" d="M89.173,62.402l0.061,0.015c0.151-0.127,0.307-0.26,0.468-0.398l-0.673-0.783
		c-0.164,0.14-0.325,0.276-0.481,0.408l-0.002,0.009L89.173,62.402z"/>
	<path fill="#FFF8E9" d="M176.025,55.609l0.472-0.918c-0.607-0.311-1.208-0.635-1.806-0.968l-0.502,0.902
		C174.797,54.964,175.408,55.292,176.025,55.609z"/>
	<path fill="#FFF8E9" d="M135.477,37.269l0.007-1.033c-0.702-0.003-1.399,0.014-2.094,0.049l0.054,1.031
		C134.118,37.281,134.795,37.266,135.477,37.269z"/>
	<path fill="#FFF8E9" d="M139.535,37.533l0.127-1.025c-0.698-0.087-1.393-0.152-2.085-0.197l-0.067,1.03
		C138.181,37.385,138.856,37.447,139.535,37.533z"/>
	<path fill="#FFF8E9" d="M141.545,37.843c0.448,0.083,0.9,0.175,1.352,0.278c0.213,0.049,0.426,0.099,0.639,0.149l0.24-1.004
		c-0.216-0.052-0.435-0.102-0.651-0.151c-0.465-0.106-0.93-0.202-1.392-0.287L141.545,37.843z"/>
	<path fill="#FFF8E9" d="M156.783,43.503c0.014,0.008,0.025,0.014,0.039,0.023c0.572,0.341,1.143,0.692,1.713,1.048l0.549-0.875
		c-0.576-0.361-1.154-0.714-1.733-1.06c-0.014-0.008-0.027-0.015-0.039-0.023L156.783,43.503z"/>
	<path fill="#FFF8E9" d="M129.395,37.751c0.669-0.109,1.342-0.2,2.019-0.273l-0.109-1.027c-0.697,0.076-1.387,0.17-2.074,0.281
		L129.395,37.751z"/>
	<path fill="#FFF8E9" d="M155.005,42.506l0.484-0.913c-0.617-0.326-1.24-0.634-1.871-0.932l-0.438,0.935
		C153.796,41.885,154.405,42.189,155.005,42.506z"/>
	<path fill="#FFF8E9" d="M147.478,39.368l0.314-0.984c-0.661-0.212-1.328-0.409-1.996-0.596l-0.277,0.994
		C146.174,38.965,146.827,39.16,147.478,39.368z"/>
	<path fill="#FFF8E9" d="M151.313,40.772l0.397-0.954c-0.643-0.265-1.292-0.519-1.945-0.757l-0.354,0.969
		C150.05,40.265,150.684,40.512,151.313,40.772z"/>
</g>
<path fill="#FFF8E9" d="M191.61,15.659c-8.635,0.012-15.617,7.022-15.596,15.655c0.001,2.274,0.48,4.441,1.432,6.505
	c0.855,1.852,0.777,4-0.187,5.796c-0.497,0.929,0.308,2.017,1.34,1.814l2.439-0.481c0.676-0.132,1.355-0.155,2.038-0.071
	c0.684,0.082,1.337,0.27,1.96,0.562c2.09,0.974,4.29,1.459,6.595,1.456c8.626,0,15.62-6.993,15.62-15.618
	C207.25,22.643,200.246,15.646,191.61,15.659z"/>
<path fill="#D20A11" d="M205,31.276c0,0.438-0.02,0.875-0.063,1.31c-0.042,0.436-0.107,0.869-0.193,1.297
	c-0.084,0.431-0.191,0.855-0.317,1.273c-0.128,0.42-0.275,0.831-0.443,1.236c-0.166,0.405-0.354,0.8-0.561,1.186
	c-0.207,0.386-0.432,0.762-0.674,1.125c-0.243,0.364-0.504,0.715-0.782,1.054c-0.276,0.339-0.57,0.664-0.882,0.973
	c-0.309,0.309-0.633,0.602-0.972,0.881c-0.338,0.277-0.689,0.538-1.053,0.781c-0.364,0.243-0.739,0.468-1.125,0.675
	c-0.387,0.207-0.782,0.393-1.188,0.561s-0.815,0.314-1.234,0.441c-0.42,0.128-0.843,0.234-1.272,0.319
	c-0.43,0.086-0.863,0.15-1.298,0.194c-0.438,0.042-0.873,0.063-1.313,0.063c-0.436,0-0.873-0.021-1.309-0.063
	c-0.436-0.044-0.868-0.108-1.298-0.194c-0.431-0.085-0.854-0.191-1.273-0.319c-0.418-0.127-0.831-0.273-1.234-0.441
	c-0.405-0.168-0.801-0.354-1.187-0.561c-0.387-0.207-0.761-0.432-1.125-0.675c-0.365-0.243-0.716-0.504-1.055-0.781
	c-0.337-0.279-0.662-0.572-0.972-0.881c-0.309-0.309-0.603-0.634-0.88-0.973c-0.279-0.339-0.539-0.69-0.783-1.054
	c-0.243-0.363-0.468-0.739-0.673-1.125c-0.206-0.386-0.394-0.781-0.562-1.186c-0.167-0.405-0.314-0.816-0.442-1.236
	c-0.126-0.418-0.233-0.842-0.319-1.273c-0.084-0.428-0.15-0.861-0.192-1.297c-0.043-0.435-0.065-0.872-0.065-1.31
	c0-0.438,0.022-0.875,0.065-1.31c0.042-0.437,0.108-0.87,0.192-1.298c0.086-0.43,0.193-0.854,0.319-1.273
	c0.128-0.419,0.275-0.831,0.442-1.236c0.168-0.404,0.356-0.799,0.562-1.185c0.205-0.386,0.43-0.762,0.673-1.125
	c0.244-0.365,0.504-0.716,0.783-1.054c0.277-0.34,0.571-0.664,0.88-0.973c0.31-0.309,0.635-0.603,0.972-0.881
	c0.339-0.277,0.69-0.538,1.055-0.781c0.364-0.244,0.738-0.468,1.125-0.675c0.386-0.207,0.782-0.393,1.187-0.561
	c0.403-0.168,0.816-0.314,1.234-0.441c0.42-0.128,0.843-0.234,1.273-0.32c0.43-0.085,0.862-0.149,1.298-0.193
	c0.436-0.042,0.873-0.064,1.309-0.064c0.439,0,0.875,0.022,1.313,0.064c0.435,0.044,0.868,0.108,1.298,0.193
	c0.43,0.086,0.853,0.192,1.272,0.32c0.419,0.127,0.829,0.273,1.234,0.441s0.801,0.354,1.188,0.561
	c0.386,0.207,0.761,0.431,1.125,0.675c0.363,0.243,0.715,0.504,1.053,0.781c0.339,0.278,0.663,0.572,0.972,0.881
	c0.312,0.309,0.605,0.633,0.882,0.973c0.278,0.338,0.539,0.689,0.782,1.054c0.242,0.363,0.467,0.739,0.674,1.125
	c0.206,0.386,0.395,0.781,0.561,1.185c0.168,0.405,0.315,0.817,0.443,1.236c0.126,0.419,0.233,0.843,0.317,1.273
	c0.086,0.428,0.151,0.861,0.193,1.298C204.981,30.401,205,30.838,205,31.276"/>
<path fill="#FFF8E9" d="M202.615,31.276c0,0.359-0.019,0.719-0.054,1.076c-0.035,0.358-0.088,0.714-0.158,1.067
	c-0.07,0.352-0.157,0.701-0.263,1.045c-0.104,0.345-0.225,0.682-0.361,1.015c-0.139,0.332-0.292,0.656-0.462,0.974
	c-0.17,0.317-0.354,0.624-0.555,0.925c-0.199,0.299-0.413,0.587-0.642,0.865c-0.229,0.279-0.468,0.544-0.723,0.799
	c-0.255,0.254-0.521,0.495-0.799,0.724c-0.278,0.228-0.566,0.441-0.865,0.641c-0.3,0.2-0.608,0.385-0.927,0.554
	c-0.314,0.17-0.641,0.323-0.973,0.461c-0.333,0.137-0.67,0.258-1.015,0.364c-0.345,0.104-0.693,0.191-1.046,0.261
	c-0.353,0.069-0.707,0.123-1.066,0.159c-0.358,0.035-0.715,0.051-1.076,0.051c-0.359,0-0.717-0.016-1.077-0.051
	c-0.356-0.036-0.712-0.09-1.063-0.159c-0.355-0.07-0.702-0.157-1.046-0.261c-0.346-0.106-0.684-0.227-1.015-0.364
	c-0.332-0.138-0.658-0.291-0.975-0.461c-0.318-0.169-0.625-0.354-0.924-0.554c-0.299-0.2-0.588-0.413-0.866-0.641
	c-0.277-0.229-0.544-0.47-0.798-0.724c-0.255-0.255-0.495-0.52-0.724-0.799c-0.228-0.278-0.443-0.566-0.643-0.865
	c-0.2-0.301-0.384-0.608-0.554-0.925c-0.169-0.318-0.322-0.642-0.46-0.974c-0.138-0.333-0.258-0.67-0.363-1.015
	c-0.104-0.344-0.191-0.693-0.262-1.045c-0.07-0.353-0.122-0.709-0.157-1.067c-0.036-0.357-0.054-0.717-0.054-1.076
	c0-0.359,0.018-0.719,0.054-1.077c0.035-0.357,0.087-0.713,0.157-1.066c0.071-0.353,0.158-0.702,0.262-1.046
	c0.105-0.342,0.225-0.682,0.363-1.014c0.138-0.333,0.291-0.657,0.46-0.974c0.17-0.317,0.354-0.625,0.554-0.925
	c0.2-0.299,0.415-0.586,0.643-0.865c0.229-0.279,0.469-0.544,0.724-0.799c0.254-0.254,0.521-0.496,0.798-0.724
	c0.278-0.228,0.567-0.442,0.866-0.641c0.299-0.2,0.606-0.385,0.924-0.555c0.317-0.169,0.643-0.322,0.975-0.46
	c0.331-0.137,0.669-0.258,1.015-0.364c0.344-0.104,0.69-0.192,1.046-0.262c0.352-0.069,0.707-0.123,1.063-0.158
	c0.36-0.035,0.718-0.052,1.077-0.052c0.361,0,0.718,0.017,1.076,0.052c0.359,0.035,0.714,0.089,1.066,0.158
	c0.353,0.07,0.701,0.158,1.046,0.262c0.345,0.106,0.682,0.227,1.015,0.364c0.332,0.138,0.658,0.291,0.973,0.46
	c0.318,0.17,0.627,0.355,0.927,0.555c0.299,0.199,0.587,0.413,0.865,0.641c0.277,0.228,0.544,0.47,0.799,0.724
	c0.255,0.255,0.494,0.52,0.723,0.799s0.442,0.566,0.642,0.865c0.2,0.3,0.385,0.608,0.555,0.925s0.323,0.641,0.462,0.974
	c0.137,0.332,0.258,0.672,0.361,1.014c0.105,0.344,0.192,0.693,0.263,1.046s0.123,0.709,0.158,1.066
	C202.596,30.558,202.615,30.917,202.615,31.276"/>
<path fill="#D20A11" d="M190.023,28.811l-0.555-1.657c-0.032-0.094-0.073-0.185-0.124-0.271c-0.051-0.087-0.11-0.166-0.178-0.239
	c-0.068-0.075-0.143-0.14-0.224-0.197c-0.082-0.057-0.168-0.106-0.261-0.146c-0.091-0.039-0.186-0.069-0.283-0.088
	c-0.098-0.02-0.196-0.028-0.298-0.027c-0.099,0.002-0.198,0.014-0.294,0.036c-0.098,0.022-0.192,0.055-0.283,0.097l-0.895,0.417
	c-0.144,0.069-0.275,0.158-0.391,0.27c-0.114,0.113-0.208,0.242-0.279,0.385c-0.072,0.144-0.117,0.297-0.137,0.456
	c-0.02,0.16-0.012,0.318,0.022,0.476c0.56,2.591,2.619,8.795,9.572,9.568c0.283,0.031,0.55-0.017,0.803-0.147
	c0.252-0.129,0.448-0.317,0.59-0.564l0.46-0.816c0.095-0.163,0.151-0.338,0.175-0.524c0.021-0.186,0.009-0.371-0.042-0.552
	c-0.051-0.182-0.133-0.346-0.248-0.494c-0.116-0.148-0.255-0.269-0.418-0.361l-0.011-0.005l-1.239-0.688
	c-0.135-0.076-0.277-0.128-0.429-0.155c-0.15-0.028-0.302-0.032-0.452-0.012c-0.153,0.022-0.298,0.066-0.436,0.134
	c-0.138,0.068-0.262,0.155-0.37,0.264c-0.108,0.108-0.23,0.195-0.367,0.264c-0.138,0.067-0.28,0.113-0.432,0.133
	c-0.151,0.021-0.302,0.018-0.452-0.009s-0.292-0.077-0.426-0.151c-0.754-0.413-1.787-1.12-2.51-2.163
	c-0.167-0.238-0.252-0.504-0.256-0.796s0.075-0.559,0.236-0.802l0.268-0.402c0.121-0.181,0.194-0.381,0.223-0.597
	C190.114,29.231,190.091,29.019,190.023,28.811"/>
</svg>
