<?xml version="1.0" standalone="no"?>
<!DOCTYPE svg PUBLIC "-//W3C//DTD SVG 20010904//EN"
 "http://www.w3.org/TR/2001/REC-SVG-20010904/DTD/svg10.dtd">
<svg version="1.0" xmlns="http://www.w3.org/2000/svg"
 width="604.000000pt" height="604.000000pt" viewBox="0 0 604.000000 604.000000"
 preserveAspectRatio="xMidYMid meet">
<metadata>
Created by potrace 1.14, written by Peter Selinger 2001-2017
</metadata>
<g transform="translate(0.000000,604.000000) scale(0.100000,-0.100000)"
fill="#000000" stroke="none">
<path d="M3139 5979 c-3 -336 2 -1394 7 -1398 4 -3 11 3 18 13 20 36 120 132
174 169 83 56 187 101 286 123 56 13 220 11 288 -2 228 -46 397 -169 524 -381
l20 -33 39 68 c46 78 146 182 226 235 79 52 191 97 284 114 11 2 67 5 125 7
89 2 126 -1 195 -18 161 -41 314 -142 418 -276 l27 -35 0 733 0 734 -47 -53
c-55 -60 -87 -92 -134 -134 -50 -45 -166 -135 -173 -135 -4 0 -12 -5 -19 -10
-76 -64 -365 -197 -487 -225 -8 -2 -37 -9 -65 -15 -27 -6 -61 -14 -75 -16 -14
-2 -34 -6 -45 -9 -83 -18 -297 -24 -420 -12 -142 14 -184 22 -365 72 -41 11
-157 57 -177 70 -13 9 -23 13 -23 10 0 -9 -135 67 -230 130 -115 76 -156 111
-277 234 l-93 94 -1 -54z"/>
<path d="M3730 4338 c-189 -33 -230 -290 -60 -375 80 -40 167 -27 232 35 40
38 57 77 61 138 4 55 -18 102 -67 149 -49 47 -102 64 -166 53z"/>
<path d="M5074 4332 c-164 -55 -184 -288 -31 -369 170 -90 357 86 277 262 -11
23 -38 57 -60 75 -34 27 -51 33 -103 36 -34 2 -71 0 -83 -4z"/>
<path d="M3100 3582 c-37 -112 -118 -318 -162 -412 -69 -150 -174 -348 -217
-412 -17 -25 -31 -49 -31 -54 0 -4 -11 -22 -25 -40 -14 -18 -25 -35 -25 -39 0
-3 -5 -11 -10 -18 -6 -7 -47 -64 -91 -127 -149 -211 -251 -332 -449 -530 -153
-153 -226 -218 -355 -320 -49 -39 -98 -78 -108 -86 -34 -28 -293 -200 -352
-234 -33 -19 -69 -40 -80 -47 -59 -35 -429 -217 -445 -218 -3 0 -10 -3 -16 -7
-6 -4 -37 -17 -70 -28 -32 -12 -72 -28 -89 -35 -16 -7 -84 -30 -150 -50 -66
-21 -124 -42 -129 -46 -6 -5 5 -15 25 -23 19 -8 38 -18 42 -23 5 -4 12 -8 15
-9 4 0 45 -19 92 -41 173 -84 311 -134 513 -188 54 -15 189 -44 231 -50 21 -3
48 -7 60 -10 32 -7 135 -17 183 -19 24 0 43 -2 43 -3 0 -11 -327 -133 -395
-148 -11 -2 -33 -8 -48 -12 l-28 -8 43 -24 c230 -124 394 -188 650 -250 136
-33 163 -38 333 -58 85 -10 446 -10 530 0 145 18 175 23 310 53 138 31 123 27
230 62 178 58 325 124 500 225 75 43 247 159 280 188 11 10 49 42 85 70 61 50
234 219 290 285 14 16 48 58 75 94 28 36 53 67 56 70 9 8 134 201 158 243 66
117 135 266 170 362 12 33 26 69 31 80 18 40 84 290 96 365 7 43 14 84 19 109
33 172 24 736 -13 773 -4 4 -23 3 -41 -2 -19 -5 -50 -12 -70 -15 -20 -3 -48
-8 -61 -11 -79 -17 -283 -23 -405 -11 -71 6 -86 9 -184 28 -76 15 -224 66
-309 106 -87 41 -226 121 -230 134 -2 5 -10 9 -17 9 -7 0 -15 3 -17 8 -1 4
-28 26 -58 49 -62 47 -200 186 -245 248 -17 22 -32 42 -35 45 -3 3 -20 26 -37
52 l-31 48 -32 -98z"/>
<path d="M4310 3675 c0 -3 49 -123 74 -180 8 -16 21 -52 31 -78 10 -26 21 -50
25 -52 7 -4 130 288 130 307 0 3 -58 6 -130 6 -71 0 -130 -1 -130 -3z"/>
<path d="M5742 3640 c-9 -16 -20 -30 -24 -30 -5 0 -8 -5 -8 -11 0 -6 -6 -16
-12 -24 -7 -7 -22 -26 -33 -41 -38 -55 -220 -231 -296 -286 -89 -65 -135 -93
-250 -149 l-85 -42 21 -61 c21 -60 53 -171 60 -204 1 -9 8 -35 14 -57 14 -56
40 -182 45 -230 3 -22 7 -58 10 -80 9 -76 18 -190 20 -252 0 -33 4 -59 9 -56
12 7 127 181 127 192 0 5 4 11 8 13 17 7 197 351 189 361 -1 2 4 11 12 20 7
10 10 17 7 17 -4 0 0 12 8 28 24 44 100 270 121 361 26 107 54 257 62 321 2
25 6 59 8 75 10 86 15 165 10 165 -3 0 -14 -13 -23 -30z"/>
</g>
</svg>
