<?xml version="1.0" encoding="utf-8"?>
<!DOCTYPE svg PUBLIC "-//W3C//DTD SVG 1.0//EN" "http://www.w3.org/TR/2001/REC-SVG-20010904/DTD/svg10.dtd">
<svg version="1.0" id="Layer_1" xmlns="http://www.w3.org/2000/svg" xmlns:xlink="http://www.w3.org/1999/xlink" x="0px" y="0px"
   width="136.777px" height="150.571px" viewBox="0 0 136.777 150.571" enable-background="new 0 0 136.777 150.571"
   xml:space="preserve">
<path fill="#D71921" d="M118.432,74.325c2.708,7.432,4.208,15.437,4.285,23.779c8.252-11.095,13.379-24.649,14.051-39.373
  C132.504,65.703,126.077,71.201,118.432,74.325z"/>
<polygon fill="#D71921" points="103.706,67.051 107.037,58.868 100.376,58.868 "/>
<path fill="#004281" d="M104.082,15.583c-13.247,0-25.07-6.072-32.85-15.583v36.822c3.395-5.048,9.158-8.37,15.701-8.37
  c7.529,0,14.031,4.398,17.072,10.767c3.043-6.369,9.541-10.767,17.068-10.767c6.545,0,12.308,3.322,15.703,8.37V0.187
  C128.997,9.59,117.238,15.583,104.082,15.583z"/>
<path fill="#004281" d="M103.889,77.19c-13.899,0-26.068-7.366-32.847-18.401C60.816,92.501,33.947,118.972,0,128.66
  c9.133,5.195,19.509,8.452,30.58,9.186c-3.854,1.637-7.833,3.037-11.928,4.155c9.322,5.36,20.105,8.478,31.625,8.568
  c35.664,0.282,64.803-28.397,65.089-64.062c0.028-3.685-0.263-7.297-0.831-10.818C111.154,76.662,107.582,77.19,103.889,77.19z"/>
<circle fill="#004281" cx="86.757" cy="47.362" r="5.042"/>
<circle fill="#004281" cx="121.037" cy="47.362" r="5.042"/>
</svg>
