<?xml version="1.0" encoding="utf-8"?>
<!-- Generator: Adobe Illustrator 16.0.0, SVG Export Plug-In . SVG Version: 6.00 Build 0)  -->
<svg version="1.2" baseProfile="tiny" id="Layer_1" xmlns="http://www.w3.org/2000/svg" xmlns:xlink="http://www.w3.org/1999/xlink"
	 x="0px" y="0px" width="546.285px" height="296.433px" viewBox="0 0 546.285 296.433" xml:space="preserve">
<path fill="#D71920" d="M106.755,277.257h2.918v14.174h-2.918V277.257z"/>
<path fill="#D71920" d="M122.51,284.844c-0.709-0.667-1.688-1.938-1.688-1.938s0.208,1.563,0.208,2.585v5.94h-2.73v-14.299h0.292
	l7.149,6.712c0.688,0.646,1.667,1.938,1.667,1.938s-0.188-1.605-0.188-2.585v-5.94h2.73v14.299h-0.292L122.51,284.844z"/>
<path fill="#D71920" d="M137.305,288.638l2.376-1.376c0.625,1.021,1.438,1.771,2.876,1.771c1.209,0,1.98-0.604,1.98-1.438
	c0-1.001-0.792-1.355-2.126-1.938l-0.729-0.313c-2.105-0.896-3.502-2.022-3.502-4.398c0-2.188,1.667-3.855,4.273-3.855
	c1.855,0,3.189,0.646,4.148,2.334l-2.272,1.459c-0.5-0.896-1.042-1.251-1.876-1.251c-0.854,0-1.396,0.542-1.396,1.251
	c0,0.875,0.542,1.229,1.792,1.771l0.729,0.313c2.48,1.063,3.877,2.147,3.877,4.586c0,2.626-2.063,4.064-4.835,4.064
	C139.91,291.619,138.159,290.327,137.305,288.638z"/>
<path fill="#D71920" d="M158.166,279.822h-4.043v-2.564h11.005v2.564h-4.043v11.609h-2.918V279.822z"/>
<path fill="#D71920" d="M172.961,277.257h2.918v14.174h-2.918V277.257z"/>
<path fill="#D71920" d="M187.737,279.822h-4.043v-2.564h11.005v2.564h-4.043v11.609h-2.918V279.822z"/>
<path fill="#D71920" d="M202.407,286.303v-9.046h2.918v8.88c0,2.063,0.896,2.855,2.834,2.855c1.918,0,2.793-0.792,2.793-2.855v-8.88
	h2.918v9.046c0,3.586-2.48,5.315-5.711,5.315C204.888,291.619,202.407,289.889,202.407,286.303z"/>
<path fill="#D71920" d="M225.623,279.822h-4.043v-2.564h11.005v2.564h-4.043v11.609h-2.918V279.822z"/>
<path fill="#D71920" d="M250.588,277.257h4.356c4.356,0,7.462,2.897,7.462,7.087s-3.085,7.087-7.462,7.087h-4.356V277.257z
	 M254.798,288.868c3.147,0,4.585-1.876,4.585-4.523s-1.438-4.522-4.585-4.522h-1.292v9.046H254.798z"/>
<path fill="#D71920" d="M270.489,277.257h9.38v2.564h-6.461v3.251h5.69v2.501h-5.69v3.294h6.752v2.563h-9.671V277.257z"/>
<path fill="#D71920" d="M298.727,277.257h9.129v2.564h-6.211v3.688h5.648v2.605h-5.648v5.315h-2.918V277.257z"/>
<path fill="#D71920" d="M315.939,277.257h5.254c2.896,0,5.273,1.355,5.273,4.669c0,2.147-1.127,3.502-2.773,4.148l3.232,5.356
	h-3.336l-2.877-4.919h-1.854v4.919h-2.92V277.257z M321.109,284.052c1.438,0,2.355-0.563,2.355-2.126
	c0-1.584-0.959-2.104-2.355-2.104h-2.25v4.23H321.109z"/>
<path fill="#D71920" d="M339.762,277.132h0.25l6.482,14.299h-3.064l-0.793-1.918h-5.502l-0.791,1.918h-2.814L339.762,277.132z
	 M341.596,287.075l-0.896-2.146c-0.396-0.938-0.813-2.376-0.855-2.522c-0.02,0.063-0.438,1.543-0.832,2.522l-0.896,2.146H341.596z"
	/>
<path fill="#D71920" d="M358.246,284.844c-0.709-0.667-1.689-1.938-1.689-1.938s0.209,1.563,0.209,2.585v5.94h-2.73v-14.299h0.291
	l7.15,6.712c0.688,0.646,1.668,1.938,1.668,1.938s-0.188-1.605-0.188-2.585v-5.94h2.73v14.299h-0.293L358.246,284.844z"/>
<path fill="#D71920" d="M378.188,295.183l1.334-0.813c0.168,0.313,0.418,0.584,0.896,0.584c0.396,0,0.75-0.229,0.75-0.709
	s-0.354-0.708-0.854-0.708h-0.709v-2.063c-3.355-0.646-5.814-3.46-5.814-7.129c0-4.189,3.23-7.253,7.295-7.253
	c2.563,0,4.396,0.917,5.668,2.896l-2.229,1.584c-0.668-1.083-1.814-1.854-3.439-1.854c-2.564,0-4.295,1.979-4.295,4.627
	s1.73,4.669,4.295,4.669c1.834,0,2.855-0.875,3.646-2.084l2.271,1.563c-1.229,1.917-3.188,3.126-5.918,3.126h-0.043v0.625
	c0.959,0.188,1.855,0.876,1.855,2.168c0,1.251-1.125,2.021-2.25,2.021C379.355,296.433,378.605,295.892,378.188,295.183z"/>
<path fill="#D71920" d="M399.59,277.132h0.25l6.482,14.299h-3.063l-0.793-1.918h-5.502l-0.793,1.918h-2.814L399.59,277.132z
	 M401.424,287.075l-0.896-2.146c-0.395-0.938-0.813-2.376-0.854-2.522c-0.021,0.063-0.438,1.543-0.834,2.522l-0.896,2.146H401.424z"
	/>
<path fill="#D71920" d="M413.926,277.257h2.92v14.174h-2.92V277.257z"/>
<path fill="#D71920" d="M424.242,288.638l2.375-1.376c0.627,1.021,1.439,1.771,2.877,1.771c1.209,0,1.98-0.604,1.98-1.438
	c0-1.001-0.793-1.355-2.127-1.938l-0.729-0.313c-2.105-0.896-3.502-2.022-3.502-4.398c0-2.188,1.668-3.855,4.273-3.855
	c1.855,0,3.189,0.646,4.146,2.334l-2.271,1.459c-0.5-0.896-1.041-1.251-1.875-1.251c-0.855,0-1.396,0.542-1.396,1.251
	c0,0.875,0.541,1.229,1.793,1.771l0.729,0.313c2.48,1.063,3.877,2.147,3.877,4.586c0,2.626-2.063,4.064-4.836,4.064
	C426.848,291.619,425.096,290.327,424.242,288.638z"/>
<path fill="#D71920" d="M296.299,74.325c2.708,7.432,4.208,15.437,4.285,23.779c8.252-11.095,13.379-24.649,14.051-39.373
	C310.371,65.703,303.944,71.201,296.299,74.325z"/>
<polygon fill="#D71920" points="281.573,67.051 284.904,58.868 278.243,58.868 "/>
<path fill="#004282" d="M281.949,15.583c-13.247,0-25.07-6.072-32.85-15.583v36.822c3.395-5.048,9.158-8.37,15.701-8.37
	c7.529,0,14.031,4.398,17.072,10.767c3.043-6.369,9.541-10.767,17.068-10.767c6.545,0,12.308,3.322,15.703,8.37V0.187
	C306.864,9.59,295.105,15.583,281.949,15.583z"/>
<path fill="#004282" d="M281.756,77.19c-13.899,0-26.068-7.366-32.847-18.401c-10.226,33.713-37.095,60.183-71.042,69.871
	c9.133,5.195,19.509,8.452,30.58,9.186c-3.854,1.636-7.833,3.037-11.928,4.155c9.322,5.36,20.105,8.478,31.625,8.568
	c35.664,0.282,64.803-28.398,65.089-64.061c0.028-3.685-0.263-7.297-0.831-10.818C289.021,76.662,285.449,77.19,281.756,77.19z"/>
<circle fill="#004282" cx="264.624" cy="47.362" r="5.042"/>
<circle fill="#004282" cx="298.904" cy="47.362" r="5.042"/>
<path fill="#004282" d="M0,201.12c0-31.219,23.758-52.996,53.148-52.996c18.273,0,32.282,6.854,41.117,20.104l-8.376,6.091
	c-6.702-9.897-17.818-16.296-32.741-16.296c-24.214,0-41.726,18.429-41.726,43.098c0,24.67,17.512,43.096,41.726,43.096
	c15.075,0,26.65-6.548,34.111-17.359l8.527,5.939c-9.139,13.4-24.061,21.317-42.639,21.317C23.758,254.113,0,232.335,0,201.12z"/>
<path fill="#004282" d="M106.755,142.946h10.661v59.24c3.959-8.376,12.183-13.707,22.385-13.707
	c14.012,0,23.604,9.594,23.604,26.042v38.374h-10.659v-37.156c0-11.115-5.179-17.514-15.687-17.514
	c-11.727,0-19.644,7.464-19.644,19.95v34.72h-10.661V142.946z"/>
<path fill="#004282" d="M175.282,221.372c0-18.426,14.62-32.893,33.505-32.893c18.729,0,33.196,14.467,33.196,32.893
	c0,18.43-14.468,32.741-33.196,32.741C189.902,254.113,175.282,239.801,175.282,221.372z M231.171,221.372
	c0-13.553-8.983-23.603-22.384-23.603c-13.553,0-22.691,10.05-22.691,23.603c0,13.556,9.139,23.606,22.691,23.606
	C222.188,244.978,231.171,234.927,231.171,221.372z"/>
<path fill="#004282" d="M253.863,225.027v-35.176h10.66v34.72c0,13.097,5.176,20.255,17.207,20.255
	c12.184,0,17.359-7.158,17.359-20.255v-34.72h10.51v35.176c0,18.429-10.813,29.238-28.021,29.238
	C264.218,254.265,253.863,243.456,253.863,225.027z"/>
<path fill="#004282" d="M355.59,245.129c9.439,0,15.837-3.807,19.948-8.376l6.547,6.396c-5.784,6.55-14.16,10.964-26.495,10.964
	c-20.711,0-34.111-14.312-34.111-32.741c0-18.426,14.16-32.893,32.586-32.893c20.255,0,32.438,15.533,31.676,36.396h-53.604
	C333.509,236.905,341.73,245.129,355.59,245.129z M375.082,216.806c-0.914-10.813-7.769-19.342-21.018-19.342
	c-12.027,0-20.1,7.767-21.773,19.342H375.082z"/>
<path fill="#004282" d="M400.817,233.861v-35.025h-9.746v-8.984h9.746v-32.893h10.509v32.893h33.96v-32.893h10.509v32.893h17.664
	v8.984h-17.664v35.178c0,8.376,2.893,10.965,7.462,10.965c4.263,0,6.546-1.829,8.527-3.655l5.785,6.699
	c-2.741,2.896-7.613,6.243-15.38,6.243c-9.594,0-16.903-5.48-16.903-20.404v-35.025h-33.96v35.178
	c0,8.376,2.893,10.965,7.461,10.965c4.267,0,6.551-1.829,8.529-3.655l5.787,6.699c-2.74,2.896-7.613,6.243-15.382,6.243
	C408.127,254.265,400.817,248.785,400.817,233.861z"/>
<path fill="#004282" d="M516.101,245.129c9.439,0,15.838-3.807,19.948-8.376l6.547,6.396c-5.784,6.55-14.16,10.964-26.495,10.964
	c-20.71,0-34.111-14.312-34.111-32.741c0-18.426,14.16-32.893,32.587-32.893c20.255,0,32.438,15.533,31.675,36.396h-53.604
	C494.021,236.905,502.241,245.129,516.101,245.129z M535.594,216.806c-0.915-10.813-7.769-19.342-21.018-19.342
	c-12.028,0-20.1,7.767-21.774,19.342H535.594z"/>
</svg>
