<?xml version="1.0" standalone="no"?>
<!DOCTYPE svg PUBLIC "-//W3C//DTD SVG 20010904//EN"
 "http://www.w3.org/TR/2001/REC-SVG-20010904/DTD/svg10.dtd">
<svg version="1.0" xmlns="http://www.w3.org/2000/svg"
 width="627.000000pt" height="627.000000pt" viewBox="0 0 627.000000 627.000000"
 preserveAspectRatio="xMidYMid meet">
<metadata>
Created by potrace 1.11, written by Peter Selinger 2001-2013
</metadata>
<g transform="translate(0.000000,627.000000) scale(0.100000,-0.100000)"
fill="#000000" stroke="none">
<path d="M3250 5506 c0 -673 2 -757 15 -746 10 8 6 -8 -11 -46 -14 -33 -26
-60 -25 -61 1 -2 0 -5 0 -8 -4 -14 -6 -23 -18 -64 -29 -103 -40 -198 -36 -331
2 -74 7 -151 10 -169 17 -87 48 -191 79 -263 19 -43 32 -78 31 -78 -2 0 -13
16 -25 36 -13 19 -26 32 -30 27 -4 -4 -19 -46 -34 -93 -76 -232 -216 -547
-335 -755 -557 -970 -1415 -1667 -2466 -2006 -49 -16 -96 -29 -103 -29 -67 0
243 -149 488 -235 116 -40 335 -97 447 -115 39 -6 80 -13 90 -15 10 -1 47 -6
83 -10 36 -4 79 -8 95 -10 17 -2 35 -4 40 -5 19 -2 -110 -51 -297 -114 l-186
-63 121 -61 c325 -162 622 -246 992 -281 96 -9 426 -7 485 2 19 4 60 9 90 12
79 8 280 50 385 80 380 108 745 308 1040 569 284 251 536 593 676 915 40 91
46 99 88 121 194 101 320 235 506 540 28 45 77 126 109 179 70 115 149 269
206 406 35 86 152 438 165 499 2 12 6 32 9 46 21 93 28 150 33 260 4 97 11
141 30 195 13 39 25 75 27 80 1 6 8 28 14 50 6 22 14 54 16 70 3 17 9 41 12
55 3 14 8 86 9 161 3 161 -12 263 -61 406 l-34 101 0 751 0 752 -32 -38 c-235
-272 -579 -477 -939 -558 -142 -33 -216 -40 -399 -40 -194 1 -262 9 -425 50
-337 87 -634 262 -862 510 l-73 79 0 -758z"/>
</g>
</svg>
