<svg width="272" height="115" fill="none" xmlns="http://www.w3.org/2000/svg"><path d="M259.872 37.023c-7.559-4.623-20.913-10.05-25.543-11.527-4.419-1.416-6.592-12.875-48.875-21.6-2.522-.524-1.445-2.415-4.161-1.599-2.723.82-3.724-.341-5.362-.732C166.286-.731 141.032.088 131.125.4 63.641 2.514-30.988 60.536 9.907 97.448c15.03 13.55 42.007 17.432 62.976 17.55 22.888.129 65.35-6.388 81.096-10.172 30.379-7.291 10.764-.899 60.613-13.129 19.74-4.85 68.122-23.236 55.265-44.047-3.03-4.915-8.825-9.917-9.985-10.627Zm-29.313-10.305c.531.524 4.555 5.409 4.187 6.054-.342.603-2.12-.422-2.697-.805-9.125-6.092-20.15-8.961-27.014-10.904-.74-.21-1.673.167-2.492-.862 5.799.683 23.886 2.437 28.016 6.517ZM168.421 5.945c5.306.52 6.452 2.463 12.341.045 5.23-2.144 43.638 11.778 42.674 14.53-.159.455-.701.531-1.081.425-1.043-.292-98.212-14.135-154.198 1.279l-.132-.402C95.957 10.04 135.358 2.745 168.42 5.945ZM59.821 22.06c-.185 1.146.198.842-9.447 5.393-12.314 5.811-11.32 5.667-11.916 5.447 2.962-2.824 16.126-9.125 21.363-10.84ZM35.883 37.748C84.659 8.135 162.41 16.698 163.442 17.085c-2.727 2.828-10.399 1.442-13.096 2.949 12.132.865 36.856-7.014 77.429 12.108l9.402 6.463c1.035.858 1.596 1.875 1.896 3.14 14.996 63.863-256.62 87.965-227.789 22.533 4.073-9.227 10.088-17.72 24.599-26.53Zm-25.471 22.23c-2.033 7.557-4.84 8.555-2.185 21.51-5.146-5.85-2.18-20.007 2.185-21.51Zm30.595 49.494C14.23 102.981 1.04 87.701 4.188 80.296c1.942 2.58 2.052 8.027 15.307 14.195 24.485 11.398 42.333 12.593 80.687 12.483 18.39-.053 18.515-1.784 27.852-1.556 3.562.087 18.205-1.207 20.503-1.696.512-.107 1.054-.088 1.544.163-.027 1.002-71.752 14.628-109.074 5.587Zm113.663-7.162c-2.371-.467-15.258 1.761-17.075.076 36.849-6.016 105.866-21.65 104.467-58.843 4.206 4.278 5.571 9.133 4.702 14.64-2.768 17.463-45.776 32.497-64.075 37.298-28.304 7.425-26.385 7.151-28.019 6.829Zm26.108-4.278c-.262-.88.682-.778 1.187-.922 16.55-4.767 47.721-14.993 59.315-27.692 16.278-17.836 1.517-24.535-1.403-33.14-.497-1.468-3.91-7.64-4.581-8.467-.118-.148-.114-.326.007-.512.967-.574 30.291 10.35 34.562 24.006 8.738 27.992-88.321 49.312-89.087 46.727Z" fill="#FFF"/></svg>
